<?xml version="1.0" encoding="us-ascii" standalone="no"?><svg xmlns="http://www.w3.org/2000/svg" xmlns:xlink="http://www.w3.org/1999/xlink" contentStyleType="text/css" height="766px" preserveAspectRatio="none" style="width:1319px;height:766px;background:#FFFFFF;" version="1.1" viewBox="0 0 1319 766" width="1319px" zoomAndPan="magnify"><defs><filter height="1" id="bu9b9o046gth80" width="1" x="0" y="0"><feFlood flood-color="#90EE90" result="flood"/><feComposite in="SourceGraphic" in2="flood" operator="over"/></filter><filter height="1" id="bu9b9o046gth81" width="1" x="0" y="0"><feFlood flood-color="#FFC0CB" result="flood"/><feComposite in="SourceGraphic" in2="flood" operator="over"/></filter></defs><g><text fill="#000000" font-family="sans-serif" font-size="14" font-weight="bold" lengthAdjust="spacing" textLength="440" x="432.5" y="25.1074">Keyple - keyple-distributed-network-java-lib - 2.2.+ (2023-05-04)</text><rect fill="#DDDDDD" height="28.6211" id="_legend" rx="7.5" ry="7.5" style="stroke:#000000;stroke-width:1.0;" width="291" x="507" y="51.6211"/><text fill="#000000" font-family="sans-serif" font-size="14" lengthAdjust="spacing" textLength="56" x="512" y="71.7285">Legend :</text><text fill="#000000" filter="url(#bu9b9o046gth80)" font-family="sans-serif" font-size="14" font-weight="bold" lengthAdjust="spacing" textLength="100" x="572" y="71.7285">Sync Node API</text><text fill="#000000" font-family="sans-serif" font-size="14" lengthAdjust="spacing" textLength="5" x="676" y="71.7285">-</text><text fill="#000000" filter="url(#bu9b9o046gth81)" font-family="sans-serif" font-size="14" font-weight="bold" lengthAdjust="spacing" textLength="108" x="685" y="71.7285">Async Node API</text><!--cluster root--><g id="cluster_root"><path d="M8.5,99.2559 L219.5,99.2559 A3.75,3.75 0 0 1 222,101.7559 L229,123.877 L1309.5,123.877 A2.5,2.5 0 0 1 1312,126.377 L1312,756.7559 A2.5,2.5 0 0 1 1309.5,759.2559 L8.5,759.2559 A2.5,2.5 0 0 1 6,756.7559 L6,101.7559 A2.5,2.5 0 0 1 8.5,99.2559 " fill="#F8F9F9" style="stroke:#000000;stroke-width:1.5;"/><line style="stroke:#000000;stroke-width:1.5;" x1="6" x2="229" y1="123.877" y2="123.877"/><text fill="#000000" font-family="sans-serif" font-size="14" font-weight="bold" lengthAdjust="spacing" textLength="210" x="10" y="116.3633">org.eclipse.keyple.distributed</text></g><!--cluster spi--><g id="cluster_spi"><path d="M206.5,323.2559 L228.5,323.2559 A3.75,3.75 0 0 1 231,325.7559 L238,347.877 L1285.5,347.877 A2.5,2.5 0 0 1 1288,350.377 L1288,477.7559 A2.5,2.5 0 0 1 1285.5,480.2559 L206.5,480.2559 A2.5,2.5 0 0 1 204,477.7559 L204,325.7559 A2.5,2.5 0 0 1 206.5,323.2559 " fill="#F2F3F4" style="stroke:#000000;stroke-width:1.5;"/><line style="stroke:#000000;stroke-width:1.5;" x1="204" x2="238" y1="347.877" y2="347.877"/><text fill="#000000" font-family="sans-serif" font-size="14" font-weight="bold" lengthAdjust="spacing" textLength="21" x="208" y="340.3633">spi</text></g><!--class AsyncNodeClient--><g id="elem_AsyncNodeClient"><rect codeLine="59" fill="#FDEDEC" height="122.4844" id="AsyncNodeClient" rx="2.5" ry="2.5" style="stroke:#E74C3C;stroke-width:2.0;" width="327" x="968.5" y="136.2559"/><ellipse cx="1068.25" cy="152.2559" fill="#B4A7E5" rx="11" ry="11" style="stroke:#181818;stroke-width:1.0;"/><path d="M1069.2031,148.8965 L1069.2031,155.5527 L1070.9219,155.5527 Q1071.5313,155.5527 1071.7969,155.7871 Q1072.0625,156.0215 1072.0625,156.4121 Q1072.0625,156.7871 1071.7969,157.0215 Q1071.5313,157.2559 1070.9219,157.2559 L1065.7813,157.2559 Q1065.1719,157.2559 1064.9063,157.0215 Q1064.6406,156.7871 1064.6406,156.3965 Q1064.6406,156.0215 1064.9063,155.7871 Q1065.1719,155.5527 1065.7813,155.5527 L1067.5,155.5527 L1067.5,148.8965 L1065.7813,148.8965 Q1065.1719,148.8965 1064.9063,148.6621 Q1064.6406,148.4277 1064.6406,148.0371 Q1064.6406,147.6621 1064.9063,147.4277 Q1065.1719,147.1934 1065.7813,147.1934 L1070.9219,147.1934 Q1071.5313,147.1934 1071.7969,147.4277 Q1072.0625,147.6621 1072.0625,148.0371 Q1072.0625,148.4277 1071.7969,148.6621 Q1071.5313,148.8965 1070.9219,148.8965 L1069.2031,148.8965 Z " fill="#000000"/><ellipse cx="1093.75" cy="151.7559" fill="#84BE84" rx="3" ry="3" style="stroke:#038048;stroke-width:1.0;"/><text fill="#000000" font-family="sans-serif" font-size="14" font-style="italic" lengthAdjust="spacing" textLength="108" x="1099.75" y="158.0527">AsyncNodeClient</text><line style="stroke:#E74C3C;stroke-width:2.0;" x1="969.5" x2="1294.5" y1="168.2559" y2="168.2559"/><line style="stroke:#E74C3C;stroke-width:2.0;" x1="969.5" x2="1294.5" y1="176.2559" y2="176.2559"/><ellipse cx="979.5" cy="191.0664" fill="#84BE84" rx="3" ry="3" style="stroke:#038048;stroke-width:1.0;"/><text fill="#000000" font-family="sans-serif" font-size="14" lengthAdjust="spacing" textLength="195" x="988.5" y="195.3633">void onOpen (String sessionId)</text><ellipse cx="979.5" cy="209.6875" fill="#84BE84" rx="3" ry="3" style="stroke:#038048;stroke-width:1.0;"/><text fill="#000000" font-family="sans-serif" font-size="14" lengthAdjust="spacing" textLength="257" x="988.5" y="213.9844">void onMessage (MessageDto message)</text><ellipse cx="979.5" cy="228.3086" fill="#84BE84" rx="3" ry="3" style="stroke:#038048;stroke-width:1.0;"/><text fill="#000000" font-family="sans-serif" font-size="14" lengthAdjust="spacing" textLength="196" x="988.5" y="232.6055">void onClose (String sessionId)</text><ellipse cx="979.5" cy="246.9297" fill="#84BE84" rx="3" ry="3" style="stroke:#038048;stroke-width:1.0;"/><text fill="#000000" font-family="sans-serif" font-size="14" lengthAdjust="spacing" textLength="301" x="988.5" y="251.2266">void onError (String sessionId, Throwable error)</text></g><!--class AsyncNodeServer--><g id="elem_AsyncNodeServer"><rect codeLine="65" fill="#FDEDEC" height="103.8633" id="AsyncNodeServer" rx="2.5" ry="2.5" style="stroke:#E74C3C;stroke-width:2.0;" width="327" x="606.5" y="145.2559"/><ellipse cx="703.75" cy="161.2559" fill="#B4A7E5" rx="11" ry="11" style="stroke:#181818;stroke-width:1.0;"/><path d="M704.7031,157.8965 L704.7031,164.5527 L706.4219,164.5527 Q707.0313,164.5527 707.2969,164.7871 Q707.5625,165.0215 707.5625,165.4121 Q707.5625,165.7871 707.2969,166.0215 Q707.0313,166.2559 706.4219,166.2559 L701.2813,166.2559 Q700.6719,166.2559 700.4063,166.0215 Q700.1406,165.7871 700.1406,165.3965 Q700.1406,165.0215 700.4063,164.7871 Q700.6719,164.5527 701.2813,164.5527 L703,164.5527 L703,157.8965 L701.2813,157.8965 Q700.6719,157.8965 700.4063,157.6621 Q700.1406,157.4277 700.1406,157.0371 Q700.1406,156.6621 700.4063,156.4277 Q700.6719,156.1934 701.2813,156.1934 L706.4219,156.1934 Q707.0313,156.1934 707.2969,156.4277 Q707.5625,156.6621 707.5625,157.0371 Q707.5625,157.4277 707.2969,157.6621 Q707.0313,157.8965 706.4219,157.8965 L704.7031,157.8965 Z " fill="#000000"/><ellipse cx="729.25" cy="160.7559" fill="#84BE84" rx="3" ry="3" style="stroke:#038048;stroke-width:1.0;"/><text fill="#000000" font-family="sans-serif" font-size="14" font-style="italic" lengthAdjust="spacing" textLength="113" x="735.25" y="167.0527">AsyncNodeServer</text><line style="stroke:#E74C3C;stroke-width:2.0;" x1="607.5" x2="932.5" y1="177.2559" y2="177.2559"/><line style="stroke:#E74C3C;stroke-width:2.0;" x1="607.5" x2="932.5" y1="185.2559" y2="185.2559"/><ellipse cx="617.5" cy="200.0664" fill="#84BE84" rx="3" ry="3" style="stroke:#038048;stroke-width:1.0;"/><text fill="#000000" font-family="sans-serif" font-size="14" lengthAdjust="spacing" textLength="257" x="626.5" y="204.3633">void onMessage (MessageDto message)</text><ellipse cx="617.5" cy="218.6875" fill="#84BE84" rx="3" ry="3" style="stroke:#038048;stroke-width:1.0;"/><text fill="#000000" font-family="sans-serif" font-size="14" lengthAdjust="spacing" textLength="196" x="626.5" y="222.9844">void onClose (String sessionId)</text><ellipse cx="617.5" cy="237.3086" fill="#84BE84" rx="3" ry="3" style="stroke:#038048;stroke-width:1.0;"/><text fill="#000000" font-family="sans-serif" font-size="14" lengthAdjust="spacing" textLength="301" x="626.5" y="241.6055">void onError (String sessionId, Throwable error)</text></g><!--class SyncNodeClient--><g id="elem_SyncNodeClient"><rect codeLine="70" fill="#E9F7EF" height="48" id="SyncNodeClient" rx="2.5" ry="2.5" style="stroke:#27AE60;stroke-width:2.0;" width="144" x="427" y="173.2559"/><ellipse cx="442" cy="189.2559" fill="#B4A7E5" rx="11" ry="11" style="stroke:#181818;stroke-width:1.0;"/><path d="M442.9531,185.8965 L442.9531,192.5527 L444.6719,192.5527 Q445.2813,192.5527 445.5469,192.7871 Q445.8125,193.0215 445.8125,193.4121 Q445.8125,193.7871 445.5469,194.0215 Q445.2813,194.2559 444.6719,194.2559 L439.5313,194.2559 Q438.9219,194.2559 438.6563,194.0215 Q438.3906,193.7871 438.3906,193.3965 Q438.3906,193.0215 438.6563,192.7871 Q438.9219,192.5527 439.5313,192.5527 L441.25,192.5527 L441.25,185.8965 L439.5313,185.8965 Q438.9219,185.8965 438.6563,185.6621 Q438.3906,185.4277 438.3906,185.0371 Q438.3906,184.6621 438.6563,184.4277 Q438.9219,184.1934 439.5313,184.1934 L444.6719,184.1934 Q445.2813,184.1934 445.5469,184.4277 Q445.8125,184.6621 445.8125,185.0371 Q445.8125,185.4277 445.5469,185.6621 Q445.2813,185.8965 444.6719,185.8965 L442.9531,185.8965 Z " fill="#000000"/><ellipse cx="461" cy="188.7559" fill="#84BE84" rx="3" ry="3" style="stroke:#038048;stroke-width:1.0;"/><text fill="#000000" font-family="sans-serif" font-size="14" font-style="italic" lengthAdjust="spacing" textLength="101" x="467" y="195.0527">SyncNodeClient</text><line style="stroke:#27AE60;stroke-width:2.0;" x1="428" x2="570" y1="205.2559" y2="205.2559"/><line style="stroke:#27AE60;stroke-width:2.0;" x1="428" x2="570" y1="213.2559" y2="213.2559"/></g><!--class SyncNodeServer--><g id="elem_SyncNodeServer"><rect codeLine="72" fill="#E9F7EF" height="66.6211" id="SyncNodeServer" rx="2.5" ry="2.5" style="stroke:#27AE60;stroke-width:2.0;" width="370" x="22" y="163.7559"/><ellipse cx="144.25" cy="179.7559" fill="#B4A7E5" rx="11" ry="11" style="stroke:#181818;stroke-width:1.0;"/><path d="M145.2031,176.3965 L145.2031,183.0527 L146.9219,183.0527 Q147.5313,183.0527 147.7969,183.2871 Q148.0625,183.5215 148.0625,183.9121 Q148.0625,184.2871 147.7969,184.5215 Q147.5313,184.7559 146.9219,184.7559 L141.7813,184.7559 Q141.1719,184.7559 140.9063,184.5215 Q140.6406,184.2871 140.6406,183.8965 Q140.6406,183.5215 140.9063,183.2871 Q141.1719,183.0527 141.7813,183.0527 L143.5,183.0527 L143.5,176.3965 L141.7813,176.3965 Q141.1719,176.3965 140.9063,176.1621 Q140.6406,175.9277 140.6406,175.5371 Q140.6406,175.1621 140.9063,174.9277 Q141.1719,174.6934 141.7813,174.6934 L146.9219,174.6934 Q147.5313,174.6934 147.7969,174.9277 Q148.0625,175.1621 148.0625,175.5371 Q148.0625,175.9277 147.7969,176.1621 Q147.5313,176.3965 146.9219,176.3965 L145.2031,176.3965 Z " fill="#000000"/><ellipse cx="169.75" cy="179.2559" fill="#84BE84" rx="3" ry="3" style="stroke:#038048;stroke-width:1.0;"/><text fill="#000000" font-family="sans-serif" font-size="14" font-style="italic" lengthAdjust="spacing" textLength="106" x="175.75" y="185.5527">SyncNodeServer</text><line style="stroke:#27AE60;stroke-width:2.0;" x1="23" x2="391" y1="195.7559" y2="195.7559"/><line style="stroke:#27AE60;stroke-width:2.0;" x1="23" x2="391" y1="203.7559" y2="203.7559"/><ellipse cx="33" cy="218.5664" fill="#84BE84" rx="3" ry="3" style="stroke:#038048;stroke-width:1.0;"/><text fill="#000000" font-family="sans-serif" font-size="14" lengthAdjust="spacing" textLength="344" x="42" y="222.8633">List&lt;MessageDto&gt; onRequest (MessageDto message)</text></g><!--class MessageDto--><g id="elem_MessageDto"><rect codeLine="90" fill="#FEFECE" height="215.5898" id="MessageDto" rx="2.5" ry="2.5" style="stroke:#D4AC0D;stroke-width:2.0;" width="194" x="316" y="527.2559"/><ellipse cx="363.75" cy="543.2559" fill="#ADD1B2" rx="11" ry="11" style="stroke:#181818;stroke-width:1.0;"/><path d="M366.5156,539.1309 Q366.6719,538.9121 366.8594,538.8027 Q367.0469,538.6934 367.2656,538.6934 Q367.6406,538.6934 367.875,538.959 Q368.1094,539.209 368.1094,539.8184 L368.1094,541.2715 Q368.1094,541.8809 367.875,542.1465 Q367.6406,542.4121 367.2656,542.4121 Q366.9219,542.4121 366.7188,542.209 Q366.5156,542.0215 366.4063,541.5059 Q366.3594,541.1465 366.1719,540.959 Q365.8438,540.584 365.2344,540.3652 Q364.625,540.1465 364,540.1465 Q363.2344,540.1465 362.5938,540.4746 Q361.9688,540.8027 361.4688,541.5527 Q360.9844,542.3027 360.9844,543.334 L360.9844,544.4277 Q360.9844,545.6621 361.875,546.4902 Q362.7656,547.3027 364.3594,547.3027 Q365.2969,547.3027 365.9531,547.0527 Q366.3438,546.8965 366.7656,546.459 Q367.0313,546.1934 367.1719,546.1152 Q367.3281,546.0371 367.5313,546.0371 Q367.8594,546.0371 368.1094,546.3027 Q368.375,546.5527 368.375,546.8965 Q368.375,547.2402 368.0313,547.6465 Q367.5313,548.2246 366.7344,548.5527 Q365.6563,549.0059 364.3594,549.0059 Q362.8438,549.0059 361.6406,548.3809 Q360.6563,547.8809 359.9688,546.8184 Q359.2813,545.7402 359.2813,544.459 L359.2813,543.3027 Q359.2813,541.9746 359.8906,540.834 Q360.5156,539.6777 361.6094,539.0684 Q362.7031,538.4434 363.9375,538.4434 Q364.6719,538.4434 365.3125,538.6152 Q365.9688,538.7715 366.5156,539.1309 Z " fill="#000000"/><ellipse cx="389.25" cy="542.7559" fill="#84BE84" rx="3" ry="3" style="stroke:#038048;stroke-width:1.0;"/><text fill="#000000" font-family="sans-serif" font-size="14" lengthAdjust="spacing" textLength="79" x="395.25" y="549.0527">MessageDto</text><line style="stroke:#D4AC0D;stroke-width:2.0;" x1="317" x2="509" y1="559.2559" y2="559.2559"/><ellipse cx="327" cy="574.0664" fill="none" rx="3" ry="3" style="stroke:#038048;stroke-width:1.0;"/><text fill="#000000" font-family="sans-serif" font-size="14" lengthAdjust="spacing" textLength="100" x="336" y="578.3633">String sessionId</text><ellipse cx="327" cy="592.6875" fill="none" rx="3" ry="3" style="stroke:#038048;stroke-width:1.0;"/><text fill="#000000" font-family="sans-serif" font-size="14" lengthAdjust="spacing" textLength="79" x="336" y="596.9844">String action</text><ellipse cx="327" cy="611.3086" fill="none" rx="3" ry="3" style="stroke:#038048;stroke-width:1.0;"/><text fill="#000000" font-family="sans-serif" font-size="14" lengthAdjust="spacing" textLength="118" x="336" y="615.6055">String clientNodeId</text><ellipse cx="327" cy="629.9297" fill="none" rx="3" ry="3" style="stroke:#038048;stroke-width:1.0;"/><text fill="#000000" font-family="sans-serif" font-size="14" lengthAdjust="spacing" textLength="125" x="336" y="634.2266">String serverNodeId</text><ellipse cx="327" cy="648.5508" fill="none" rx="3" ry="3" style="stroke:#038048;stroke-width:1.0;"/><text fill="#000000" font-family="sans-serif" font-size="14" lengthAdjust="spacing" textLength="153" x="336" y="652.8477">String localReaderName</text><ellipse cx="327" cy="667.1719" fill="none" rx="3" ry="3" style="stroke:#038048;stroke-width:1.0;"/><text fill="#000000" font-family="sans-serif" font-size="14" lengthAdjust="spacing" textLength="168" x="336" y="671.4688">String remoteReaderName</text><ellipse cx="327" cy="685.793" fill="none" rx="3" ry="3" style="stroke:#038048;stroke-width:1.0;"/><text fill="#000000" font-family="sans-serif" font-size="14" lengthAdjust="spacing" textLength="72" x="336" y="690.0898">String body</text><line style="stroke:#D4AC0D;stroke-width:2.0;" x1="317" x2="509" y1="697.6035" y2="697.6035"/><ellipse cx="327" cy="712.4141" fill="#84BE84" rx="3" ry="3" style="stroke:#038048;stroke-width:1.0;"/><text fill="#000000" font-family="sans-serif" font-size="14" lengthAdjust="spacing" textLength="66" x="336" y="716.7109">getters()...</text><ellipse cx="327" cy="731.0352" fill="#84BE84" rx="3" ry="3" style="stroke:#038048;stroke-width:1.0;"/><text fill="#000000" font-family="sans-serif" font-size="14" lengthAdjust="spacing" textLength="65" x="336" y="735.332">setters()...</text></g><!--class NodeCommunicationException--><g id="elem_NodeCommunicationException"><rect codeLine="102" fill="#FEFECE" height="100.4844" id="NodeCommunicationException" rx="2.5" ry="2.5" style="stroke:#D4AC0D;stroke-width:2.0;" width="445" x="567.5" y="585.2559"/><ellipse cx="684.75" cy="608.877" fill="#ADD1B2" rx="11" ry="11" style="stroke:#181818;stroke-width:1.0;"/><path d="M687.5156,604.752 Q687.6719,604.5332 687.8594,604.4238 Q688.0469,604.3145 688.2656,604.3145 Q688.6406,604.3145 688.875,604.5801 Q689.1094,604.8301 689.1094,605.4395 L689.1094,606.8926 Q689.1094,607.502 688.875,607.7676 Q688.6406,608.0332 688.2656,608.0332 Q687.9219,608.0332 687.7188,607.8301 Q687.5156,607.6426 687.4063,607.127 Q687.3594,606.7676 687.1719,606.5801 Q686.8438,606.2051 686.2344,605.9863 Q685.625,605.7676 685,605.7676 Q684.2344,605.7676 683.5938,606.0957 Q682.9688,606.4238 682.4688,607.1738 Q681.9844,607.9238 681.9844,608.9551 L681.9844,610.0488 Q681.9844,611.2832 682.875,612.1113 Q683.7656,612.9238 685.3594,612.9238 Q686.2969,612.9238 686.9531,612.6738 Q687.3438,612.5176 687.7656,612.0801 Q688.0313,611.8145 688.1719,611.7363 Q688.3281,611.6582 688.5313,611.6582 Q688.8594,611.6582 689.1094,611.9238 Q689.375,612.1738 689.375,612.5176 Q689.375,612.8613 689.0313,613.2676 Q688.5313,613.8457 687.7344,614.1738 Q686.6563,614.627 685.3594,614.627 Q683.8438,614.627 682.6406,614.002 Q681.6563,613.502 680.9688,612.4395 Q680.2813,611.3613 680.2813,610.0801 L680.2813,608.9238 Q680.2813,607.5957 680.8906,606.4551 Q681.5156,605.2988 682.6094,604.6895 Q683.7031,604.0645 684.9375,604.0645 Q685.6719,604.0645 686.3125,604.2363 Q686.9688,604.3926 687.5156,604.752 Z " fill="#000000"/><ellipse cx="710.25" cy="608.377" fill="#84BE84" rx="3" ry="3" style="stroke:#038048;stroke-width:1.0;"/><text fill="#000000" font-family="sans-serif" font-size="14" lengthAdjust="spacing" textLength="129" x="747.25" y="605.3633">&#171;RuntimeException&#187;</text><text fill="#000000" font-family="sans-serif" font-size="14" lengthAdjust="spacing" textLength="191" x="716.25" y="623.9844">NodeCommunicationException</text><line style="stroke:#D4AC0D;stroke-width:2.0;" x1="568.5" x2="1011.5" y1="632.498" y2="632.498"/><line style="stroke:#D4AC0D;stroke-width:2.0;" x1="568.5" x2="1011.5" y1="640.498" y2="640.498"/><ellipse cx="578.5" cy="655.3086" fill="#84BE84" rx="3" ry="3" style="stroke:#038048;stroke-width:1.0;"/><text fill="#000000" font-family="sans-serif" font-size="14" lengthAdjust="spacing" textLength="303" x="587.5" y="659.6055">NodeCommunicationException (String message)</text><ellipse cx="578.5" cy="673.9297" fill="#84BE84" rx="3" ry="3" style="stroke:#038048;stroke-width:1.0;"/><text fill="#000000" font-family="sans-serif" font-size="14" lengthAdjust="spacing" textLength="419" x="587.5" y="678.2266">NodeCommunicationException (String message, Throwable cause)</text></g><!--class AsyncEndpointClientSpi--><g id="elem_AsyncEndpointClientSpi"><rect codeLine="77" fill="#FDEDEC" height="103.8633" id="AsyncEndpointClientSpi" rx="2.5" ry="2.5" style="stroke:#E74C3C;stroke-width:2.0;" width="298" x="974" y="360.2559"/><ellipse cx="1038.25" cy="376.2559" fill="#B4A7E5" rx="11" ry="11" style="stroke:#181818;stroke-width:1.0;"/><path d="M1039.2031,372.8965 L1039.2031,379.5527 L1040.9219,379.5527 Q1041.5313,379.5527 1041.7969,379.7871 Q1042.0625,380.0215 1042.0625,380.4121 Q1042.0625,380.7871 1041.7969,381.0215 Q1041.5313,381.2559 1040.9219,381.2559 L1035.7813,381.2559 Q1035.1719,381.2559 1034.9063,381.0215 Q1034.6406,380.7871 1034.6406,380.3965 Q1034.6406,380.0215 1034.9063,379.7871 Q1035.1719,379.5527 1035.7813,379.5527 L1037.5,379.5527 L1037.5,372.8965 L1035.7813,372.8965 Q1035.1719,372.8965 1034.9063,372.6621 Q1034.6406,372.4277 1034.6406,372.0371 Q1034.6406,371.6621 1034.9063,371.4277 Q1035.1719,371.1934 1035.7813,371.1934 L1040.9219,371.1934 Q1041.5313,371.1934 1041.7969,371.4277 Q1042.0625,371.6621 1042.0625,372.0371 Q1042.0625,372.4277 1041.7969,372.6621 Q1041.5313,372.8965 1040.9219,372.8965 L1039.2031,372.8965 Z " fill="#000000"/><ellipse cx="1063.75" cy="375.7559" fill="#84BE84" rx="3" ry="3" style="stroke:#038048;stroke-width:1.0;"/><text fill="#000000" font-family="sans-serif" font-size="14" font-style="italic" lengthAdjust="spacing" textLength="150" x="1069.75" y="382.0527">AsyncEndpointClientSpi</text><line style="stroke:#E74C3C;stroke-width:2.0;" x1="975" x2="1271" y1="392.2559" y2="392.2559"/><line style="stroke:#E74C3C;stroke-width:2.0;" x1="975" x2="1271" y1="400.2559" y2="400.2559"/><ellipse cx="985" cy="415.0664" fill="#84BE84" rx="3" ry="3" style="stroke:#038048;stroke-width:1.0;"/><text fill="#000000" font-family="sans-serif" font-size="14" lengthAdjust="spacing" textLength="226" x="994" y="419.3633">void openSession (String sessionId)</text><ellipse cx="985" cy="433.6875" fill="#84BE84" rx="3" ry="3" style="stroke:#038048;stroke-width:1.0;"/><text fill="#000000" font-family="sans-serif" font-size="14" lengthAdjust="spacing" textLength="272" x="994" y="437.9844">void sendMessage (MessageDto message)</text><ellipse cx="985" cy="452.3086" fill="#84BE84" rx="3" ry="3" style="stroke:#038048;stroke-width:1.0;"/><text fill="#000000" font-family="sans-serif" font-size="14" lengthAdjust="spacing" textLength="227" x="994" y="456.6055">void closeSession (String sessionId)</text></g><!--class AsyncEndpointServerSpi--><g id="elem_AsyncEndpointServerSpi"><rect codeLine="82" fill="#FDEDEC" height="66.6211" id="AsyncEndpointServerSpi" rx="2.5" ry="2.5" style="stroke:#E74C3C;stroke-width:2.0;" width="298" x="641" y="378.7559"/><ellipse cx="702.75" cy="394.7559" fill="#B4A7E5" rx="11" ry="11" style="stroke:#181818;stroke-width:1.0;"/><path d="M703.7031,391.3965 L703.7031,398.0527 L705.4219,398.0527 Q706.0313,398.0527 706.2969,398.2871 Q706.5625,398.5215 706.5625,398.9121 Q706.5625,399.2871 706.2969,399.5215 Q706.0313,399.7559 705.4219,399.7559 L700.2813,399.7559 Q699.6719,399.7559 699.4063,399.5215 Q699.1406,399.2871 699.1406,398.8965 Q699.1406,398.5215 699.4063,398.2871 Q699.6719,398.0527 700.2813,398.0527 L702,398.0527 L702,391.3965 L700.2813,391.3965 Q699.6719,391.3965 699.4063,391.1621 Q699.1406,390.9277 699.1406,390.5371 Q699.1406,390.1621 699.4063,389.9277 Q699.6719,389.6934 700.2813,389.6934 L705.4219,389.6934 Q706.0313,389.6934 706.2969,389.9277 Q706.5625,390.1621 706.5625,390.5371 Q706.5625,390.9277 706.2969,391.1621 Q706.0313,391.3965 705.4219,391.3965 L703.7031,391.3965 Z " fill="#000000"/><ellipse cx="728.25" cy="394.2559" fill="#84BE84" rx="3" ry="3" style="stroke:#038048;stroke-width:1.0;"/><text fill="#000000" font-family="sans-serif" font-size="14" font-style="italic" lengthAdjust="spacing" textLength="155" x="734.25" y="400.5527">AsyncEndpointServerSpi</text><line style="stroke:#E74C3C;stroke-width:2.0;" x1="642" x2="938" y1="410.7559" y2="410.7559"/><line style="stroke:#E74C3C;stroke-width:2.0;" x1="642" x2="938" y1="418.7559" y2="418.7559"/><ellipse cx="652" cy="433.5664" fill="#84BE84" rx="3" ry="3" style="stroke:#038048;stroke-width:1.0;"/><text fill="#000000" font-family="sans-serif" font-size="14" lengthAdjust="spacing" textLength="272" x="661" y="437.8633">void sendMessage (MessageDto message)</text></g><!--class SyncEndpointClientSpi--><g id="elem_SyncEndpointClientSpi"><rect codeLine="85" fill="#E9F7EF" height="66.6211" id="SyncEndpointClientSpi" rx="2.5" ry="2.5" style="stroke:#27AE60;stroke-width:2.0;" width="385" x="220.5" y="378.7559"/><ellipse cx="331.75" cy="394.7559" fill="#B4A7E5" rx="11" ry="11" style="stroke:#181818;stroke-width:1.0;"/><path d="M332.7031,391.3965 L332.7031,398.0527 L334.4219,398.0527 Q335.0313,398.0527 335.2969,398.2871 Q335.5625,398.5215 335.5625,398.9121 Q335.5625,399.2871 335.2969,399.5215 Q335.0313,399.7559 334.4219,399.7559 L329.2813,399.7559 Q328.6719,399.7559 328.4063,399.5215 Q328.1406,399.2871 328.1406,398.8965 Q328.1406,398.5215 328.4063,398.2871 Q328.6719,398.0527 329.2813,398.0527 L331,398.0527 L331,391.3965 L329.2813,391.3965 Q328.6719,391.3965 328.4063,391.1621 Q328.1406,390.9277 328.1406,390.5371 Q328.1406,390.1621 328.4063,389.9277 Q328.6719,389.6934 329.2813,389.6934 L334.4219,389.6934 Q335.0313,389.6934 335.2969,389.9277 Q335.5625,390.1621 335.5625,390.5371 Q335.5625,390.9277 335.2969,391.1621 Q335.0313,391.3965 334.4219,391.3965 L332.7031,391.3965 Z " fill="#000000"/><ellipse cx="357.25" cy="394.2559" fill="#84BE84" rx="3" ry="3" style="stroke:#038048;stroke-width:1.0;"/><text fill="#000000" font-family="sans-serif" font-size="14" font-style="italic" lengthAdjust="spacing" textLength="143" x="363.25" y="400.5527">SyncEndpointClientSpi</text><line style="stroke:#27AE60;stroke-width:2.0;" x1="221.5" x2="604.5" y1="410.7559" y2="410.7559"/><line style="stroke:#27AE60;stroke-width:2.0;" x1="221.5" x2="604.5" y1="418.7559" y2="418.7559"/><ellipse cx="231.5" cy="433.5664" fill="#84BE84" rx="3" ry="3" style="stroke:#038048;stroke-width:1.0;"/><text fill="#000000" font-family="sans-serif" font-size="14" lengthAdjust="spacing" textLength="359" x="240.5" y="437.8633">List&lt;MessageDto&gt; sendRequest (MessageDto message)</text></g><!--link SyncNodeClient to SyncEndpointClientSpi--><g id="link_SyncNodeClient_SyncEndpointClientSpi"><path codeLine="109" d="M489.633,221.4559 C474.806,258.1789 445.794,330.0329 428.031,374.0289 " fill="none" id="SyncNodeClient-to-SyncEndpointClientSpi" style="stroke:#27AE60;stroke-width:2.0;"/><polygon fill="#27AE60" points="426.135,378.7239,433.2143,371.8768,428.0075,374.0877,425.7965,368.8808,426.135,378.7239" style="stroke:#27AE60;stroke-width:2.0;"/><polygon fill="#000000" points="464.1281,302.5377,470.2396,295.2508,464.7893,293.0502,464.1281,302.5377" style="stroke:#000000;stroke-width:1.0;"/><text fill="#000000" font-family="sans-serif" font-size="13" lengthAdjust="spacing" textLength="21" x="475" y="303.2842">use</text></g><!--link AsyncNodeClient to AsyncEndpointClientSpi--><g id="link_AsyncNodeClient_AsyncEndpointClientSpi"><path codeLine="110" d="M1129.46,258.4389 C1128.17,288.7919 1126.63,325.3779 1125.37,355.1409 " fill="none" id="AsyncNodeClient-to-AsyncEndpointClientSpi" style="stroke:#27AE60;stroke-width:2.0;"/><polygon fill="#27AE60" points="1125.16,360.2359,1129.5367,351.4129,1125.3712,355.2403,1121.5438,351.0749,1125.16,360.2359" style="stroke:#27AE60;stroke-width:2.0;"/><polygon fill="#000000" points="1132.7887,302.8969,1136.1072,293.9841,1130.2346,293.7357,1132.7887,302.8969" style="stroke:#000000;stroke-width:1.0;"/><text fill="#000000" font-family="sans-serif" font-size="13" lengthAdjust="spacing" textLength="21" x="1142" y="303.2842">use</text></g><!--link AsyncNodeServer to AsyncEndpointServerSpi--><g id="link_AsyncNodeServer_AsyncEndpointServerSpi"><path codeLine="111" d="M774.79,249.2749 C778.367,287.3599 783.176,338.5769 786.421,373.1419 " fill="none" id="AsyncNodeServer-to-AsyncEndpointServerSpi" style="stroke:#27AE60;stroke-width:2.0;"/><polygon fill="#27AE60" points="786.928,378.5419,790.0697,369.2075,786.4609,373.5637,782.1047,369.9549,786.928,378.5419" style="stroke:#27AE60;stroke-width:2.0;"/><polygon fill="#000000" points="785.4674,302.8795,787.5479,293.5992,781.6958,294.1488,785.4674,302.8795" style="stroke:#000000;stroke-width:1.0;"/><text fill="#000000" font-family="sans-serif" font-size="13" lengthAdjust="spacing" textLength="21" x="794" y="303.2842">use</text></g><!--link SyncEndpointClientSpi to MessageDto--><!--link AsyncEndpointServerSpi to NodeCommunicationException--><!--SRC=[pLVRSgD647tNLtJiglYoGVRgih9SMbKX63QkzSeketrm9QaKWh54X6POPh2ZslA_fnb0Ge0kZz7JgFjqd-cUvWn8NmQq0VZxIbTXG463XLfedYzav4zZIJsDKVd6euNsZ_FgQ84_HLIhsMf-WFFMTQkjNNUrwyv5Wp8FfChNE8FFds7oE_b6S85_3Hu7D8u4-4B4L817uHRcKeRYzkfgBfU1omCUkToZekdovTLBT2MTQK2TMFEevgRHDIPS2d_6j31mv5NZ5u- - -8o2yVUN9_By4QmRgs_rI-OMM2shRNLAvZQGBkcHChe3PiyScMR9t0L3DoopLJ9_Wf5fj8rUmNn_D_uAxKx_nXmLhDzj0gsUJZvT9xtIDB3bAi2-oBaZmUFiJ4BIS7ZpvHmOVODN6WcVC-0lWBKo6Iy336k8XSz29tAM82IDA9UhaEeZ7daqCfAEmgdUDmtJgWNURG577Rr7khL0OpkZQNuSjMg1P0j8HlqsKglwoDXCzbk8CW97Y1G_cVlkWb4Xe9XMZoB-LdHXfcSQ1FojaiLn5xE8nypBc2rY4OFKasKGiwCRroQcVABUWNo3GKIzuH3JciGanfwqQoJfTN0E6dCV1pqtRjg4h8znX0_PGU9GmHHtXnXMRo_t1dn3EXtTpEdNzgqTJ8FuC7y2KlMChAursikUGxDPpxWpwnRpbuXITf1wbg0KTz_g4MilzngRFLCPUMukiw-E8LyfRXtdY1pYLj2MqIRT8lLgcpdLHEDXF27ZYLB5WCwKPF9G2V1z-lSM1bFSpctWp-PIjMfuUMclc0jZb4VG7-ykBmTN2MI8CfnYGvyj4AMBMfWIvfIiqGZHuimedF1ergHku8U2DbF9RnOa_mGS0H7d4dwgpPsfj09-1HlJe1WfwmUVOO4lZek42NU2CGAViZnCWLwvxm5d3o5bS6uZ0vk1m4SQzUpEkwZWlg4hsU5vjZ0bXsMwh8ADW0jwJ5Q2QX9LWR_1P8uoarmiG1D86lc-ipoRHgZ5DUNzBxTjrntAJbIrjdkSYC6ce27kw8d-m1jSxgxpFHiO-_5EhVA94w5VJ5tgBM5UoD6MxjJUmXOQWZDafqtOrxrDWC1fFUfaDY5kSZP7aBmVh2NjvwvQZjvQBP5zJCygnvTm7Zp03MT-bERa8PqPDv4_A0GM3XJAhQgw75UYfsftLG792DP52TN6NTw0kqxmH1qKfR6pf5L0H9TSqds8AVTM1UkCIkooEBzeDfi5ioYRy-wGVrqQ9eM9OfDE1eEdc4b_ITV-uV1Fffv6lbp6p7UTnBZsAidTxIwsUWyg7zYgz1mVL5GNrud5-i5-JsunNGZk-avQS4bWD6suOp9FqvVUMy1qC6oKhuiaS8SEx8hCrAeIkNdgIf7f3NolFpzyJo_W-frgV-0Txb7sbrOOzCOEYW9uTtypPdloV9z-3-MIg2xOq_npvUVxbgCfqXBIZnPqLfgMlLbMMh9bhnPOwzwKbBiRTZbhzZvLFlHjHnrVxlyF]--></g></svg>