<?xml version="1.0" encoding="us-ascii" standalone="no"?><svg xmlns="http://www.w3.org/2000/svg" xmlns:xlink="http://www.w3.org/1999/xlink" contentStyleType="text/css" height="1248px" preserveAspectRatio="none" style="width:1005px;height:1248px;background:#FFFFFF;" version="1.1" viewBox="0 0 1005 1248" width="1005px" zoomAndPan="magnify"><defs/><g><text fill="#000000" font-family="sans-serif" font-size="14" font-weight="bold" lengthAdjust="spacing" textLength="126" x="435.5" y="30.1074">Sync Node Server</text><rect fill="#FFFFFF" height="1113.6035" style="stroke:#181818;stroke-width:1.0;" width="10" x="25" y="88.2422"/><rect fill="#FFFFFF" height="287.6191" style="stroke:#181818;stroke-width:1.0;" width="10" x="225" y="156.8242"/><rect fill="#FFFFFF" height="301.6191" style="stroke:#181818;stroke-width:1.0;" width="10" x="225" y="530.3164"/><rect fill="#FFFFFF" height="284.3281" style="stroke:#181818;stroke-width:1.0;" width="10" x="225" y="908.5176"/><rect fill="#FFFFFF" height="612.5293" style="stroke:#181818;stroke-width:1.0;" width="10" x="413" y="188.1152"/><rect fill="#FFFFFF" height="221.7461" style="stroke:#181818;stroke-width:1.0;" width="10" x="413" y="939.8086"/><rect fill="#FFFFFF" height="45.291" style="stroke:#181818;stroke-width:1.0;" width="10" x="620" y="219.4063"/><rect fill="#FFFFFF" height="273.6191" style="stroke:#181818;stroke-width:1.0;" width="10" x="620" y="350.5703"/><rect fill="#FFFFFF" height="59.291" style="stroke:#181818;stroke-width:1.0;" width="10" x="620" y="710.0625"/><rect fill="#FFFFFF" height="121.873" style="stroke:#181818;stroke-width:1.0;" width="10" x="620" y="971.0996"/><rect fill="#FFFFFF" height="518.6563" style="stroke:#181818;stroke-width:1.0;" width="10" x="893" y="250.6973"/><rect fill="#FFFFFF" height="31.291" style="stroke:#181818;stroke-width:1.0;" width="10" x="893" y="1002.3906"/><line style="stroke:#181818;stroke-width:0.5;stroke-dasharray:5.0,5.0;" x1="30" x2="30" y1="78.2422" y2="1210.8457"/><line style="stroke:#181818;stroke-width:0.5;stroke-dasharray:5.0,5.0;" x1="230" x2="230" y1="78.2422" y2="1210.8457"/><line style="stroke:#181818;stroke-width:0.5;stroke-dasharray:5.0,5.0;" x1="418" x2="418" y1="78.2422" y2="1210.8457"/><line style="stroke:#181818;stroke-width:0.5;stroke-dasharray:5.0,5.0;" x1="625" x2="625" y1="78.2422" y2="1210.8457"/><line style="stroke:#181818;stroke-width:0.5;stroke-dasharray:5.0,5.0;" x1="898" x2="898" y1="78.2422" y2="1210.8457"/><rect fill="#E2E2F0" height="32.6211" rx="2.5" ry="2.5" style="stroke:#181818;stroke-width:0.5;" width="50" x="5" y="44.6211"/><text fill="#000000" font-family="sans-serif" font-size="14" lengthAdjust="spacing" textLength="36" x="12" y="66.7285">Client</text><rect fill="#E2E2F0" height="32.6211" rx="2.5" ry="2.5" style="stroke:#181818;stroke-width:0.5;" width="50" x="5" y="1209.8457"/><text fill="#000000" font-family="sans-serif" font-size="14" lengthAdjust="spacing" textLength="36" x="12" y="1231.9531">Client</text><rect fill="#E2E2F0" height="32.6211" rx="2.5" ry="2.5" style="stroke:#181818;stroke-width:0.5;" width="116" x="172" y="44.6211"/><text fill="#000000" font-family="sans-serif" font-size="14" lengthAdjust="spacing" textLength="102" x="179" y="66.7285">Endpoint Server</text><rect fill="#E2E2F0" height="32.6211" rx="2.5" ry="2.5" style="stroke:#181818;stroke-width:0.5;" width="116" x="172" y="1209.8457"/><text fill="#000000" font-family="sans-serif" font-size="14" lengthAdjust="spacing" textLength="102" x="179" y="1231.9531">Endpoint Server</text><rect fill="#E2E2F0" height="32.6211" rx="2.5" ry="2.5" style="stroke:#181818;stroke-width:0.5;" width="128" x="354" y="44.6211"/><text fill="#000000" font-family="sans-serif" font-size="14" lengthAdjust="spacing" textLength="114" x="361" y="66.7285">Sync Node Server</text><rect fill="#E2E2F0" height="32.6211" rx="2.5" ry="2.5" style="stroke:#181818;stroke-width:0.5;" width="128" x="354" y="1209.8457"/><text fill="#000000" font-family="sans-serif" font-size="14" lengthAdjust="spacing" textLength="114" x="361" y="1231.9531">Sync Node Server</text><rect fill="#E2E2F0" height="32.6211" rx="2.5" ry="2.5" style="stroke:#181818;stroke-width:0.5;" width="156" x="547" y="44.6211"/><text fill="#000000" font-family="sans-serif" font-size="14" lengthAdjust="spacing" textLength="142" x="554" y="66.7285">Keyple Server Handler</text><rect fill="#E2E2F0" height="32.6211" rx="2.5" ry="2.5" style="stroke:#181818;stroke-width:0.5;" width="156" x="547" y="1209.8457"/><text fill="#000000" font-family="sans-serif" font-size="14" lengthAdjust="spacing" textLength="142" x="554" y="1231.9531">Keyple Server Handler</text><rect fill="#E2E2F0" height="32.6211" rx="2.5" ry="2.5" style="stroke:#181818;stroke-width:0.5;" width="190" x="803" y="44.6211"/><text fill="#000000" font-family="sans-serif" font-size="14" lengthAdjust="spacing" textLength="176" x="810" y="66.7285">Server Ticketing Application</text><rect fill="#E2E2F0" height="32.6211" rx="2.5" ry="2.5" style="stroke:#181818;stroke-width:0.5;" width="190" x="803" y="1209.8457"/><text fill="#000000" font-family="sans-serif" font-size="14" lengthAdjust="spacing" textLength="176" x="810" y="1231.9531">Server Ticketing Application</text><rect fill="#FFFFFF" height="1113.6035" style="stroke:#181818;stroke-width:1.0;" width="10" x="25" y="88.2422"/><rect fill="#FFFFFF" height="287.6191" style="stroke:#181818;stroke-width:1.0;" width="10" x="225" y="156.8242"/><rect fill="#FFFFFF" height="301.6191" style="stroke:#181818;stroke-width:1.0;" width="10" x="225" y="530.3164"/><rect fill="#FFFFFF" height="284.3281" style="stroke:#181818;stroke-width:1.0;" width="10" x="225" y="908.5176"/><rect fill="#FFFFFF" height="612.5293" style="stroke:#181818;stroke-width:1.0;" width="10" x="413" y="188.1152"/><rect fill="#FFFFFF" height="221.7461" style="stroke:#181818;stroke-width:1.0;" width="10" x="413" y="939.8086"/><rect fill="#FFFFFF" height="45.291" style="stroke:#181818;stroke-width:1.0;" width="10" x="620" y="219.4063"/><rect fill="#FFFFFF" height="273.6191" style="stroke:#181818;stroke-width:1.0;" width="10" x="620" y="350.5703"/><rect fill="#FFFFFF" height="59.291" style="stroke:#181818;stroke-width:1.0;" width="10" x="620" y="710.0625"/><rect fill="#FFFFFF" height="121.873" style="stroke:#181818;stroke-width:1.0;" width="10" x="620" y="971.0996"/><rect fill="#FFFFFF" height="518.6563" style="stroke:#181818;stroke-width:1.0;" width="10" x="893" y="250.6973"/><rect fill="#FFFFFF" height="31.291" style="stroke:#181818;stroke-width:1.0;" width="10" x="893" y="1002.3906"/><rect fill="#EEEEEE" height="3" style="stroke:#EEEEEE;stroke-width:1.0;" width="998" x="0" y="109.8877"/><line style="stroke:#000000;stroke-width:1.0;" x1="0" x2="998" y1="109.8877" y2="109.8877"/><line style="stroke:#000000;stroke-width:1.0;" x1="0" x2="998" y1="112.8877" y2="112.8877"/><rect fill="#EEEEEE" height="25.291" style="stroke:#000000;stroke-width:2.0;" width="138" x="430" y="98.2422"/><text fill="#000000" font-family="sans-serif" font-size="13" font-weight="bold" lengthAdjust="spacing" textLength="120" x="436" y="116.2705">Reader Client Side</text><polygon fill="#181818" points="213,152.8242,223,156.8242,213,160.8242,217,156.8242" style="stroke:#181818;stroke-width:1.0;"/><line style="stroke:#181818;stroke-width:1.0;" x1="35" x2="219" y1="156.8242" y2="156.8242"/><text fill="#000000" font-family="sans-serif" font-size="13" lengthAdjust="spacing" textLength="171" x="42" y="151.5615">HTTP request (messageDto1)</text><polygon fill="#181818" points="401,184.1152,411,188.1152,401,192.1152,405,188.1152" style="stroke:#181818;stroke-width:1.0;"/><line style="stroke:#181818;stroke-width:1.0;" x1="235" x2="407" y1="188.1152" y2="188.1152"/><text fill="#000000" font-family="sans-serif" font-size="13" lengthAdjust="spacing" textLength="154" x="242" y="182.8525">onRequest (messageDto1)</text><polygon fill="#181818" points="608,215.4063,618,219.4063,608,223.4063,612,219.4063" style="stroke:#181818;stroke-width:1.0;"/><line style="stroke:#181818;stroke-width:1.0;" x1="423" x2="614" y1="219.4063" y2="219.4063"/><text fill="#000000" font-family="sans-serif" font-size="13" lengthAdjust="spacing" textLength="159" x="430" y="214.1436">onMessage (messageDto1)</text><line style="stroke:#181818;stroke-width:1.0;" x1="891" x2="881" y1="250.6973" y2="246.6973"/><line style="stroke:#181818;stroke-width:1.0;" x1="891" x2="881" y1="250.6973" y2="254.6973"/><line style="stroke:#181818;stroke-width:1.0;" x1="630" x2="892" y1="250.6973" y2="250.6973"/><text fill="#000000" font-family="sans-serif" font-size="13" lengthAdjust="spacing" textLength="244" x="637" y="245.4346">ASYNC process message (messageDto1)</text><polygon fill="#181818" points="434,260.6973,424,264.6973,434,268.6973,430,264.6973" style="stroke:#181818;stroke-width:1.0;"/><line style="stroke:#181818;stroke-width:1.0;stroke-dasharray:2.0,2.0;" x1="428" x2="624" y1="264.6973" y2="264.6973"/><path d="M309,277.6973 L309,321.6973 L526,321.6973 L526,287.6973 L516,277.6973 L309,277.6973 " fill="#FEFFDD" style="stroke:#181818;stroke-width:0.5;"/><path d="M516,277.6973 L516,287.6973 L526,287.6973 L516,277.6973 " fill="#FEFFDD" style="stroke:#181818;stroke-width:0.5;"/><text fill="#000000" font-family="sans-serif" font-size="13" lengthAdjust="spacing" textLength="77" x="315" y="296.7256">await timeout</text><text fill="#000000" font-family="sans-serif" font-size="13" lengthAdjust="spacing" textLength="196" x="315" y="314.0166">until server process messageDto1</text><polygon fill="#181818" points="641,346.5703,631,350.5703,641,354.5703,637,350.5703" style="stroke:#181818;stroke-width:1.0;"/><line style="stroke:#181818;stroke-width:1.0;" x1="635" x2="892" y1="350.5703" y2="350.5703"/><text fill="#000000" font-family="sans-serif" font-size="13" lengthAdjust="spacing" textLength="80" x="647" y="345.3076">messageDto2</text><polygon fill="#181818" points="434,377.8613,424,381.8613,434,385.8613,430,381.8613" style="stroke:#181818;stroke-width:1.0;"/><line style="stroke:#181818;stroke-width:1.0;" x1="428" x2="619" y1="381.8613" y2="381.8613"/><text fill="#000000" font-family="sans-serif" font-size="13" lengthAdjust="spacing" textLength="168" x="440" y="376.5986">sendRequest (messageDto2)</text><polygon fill="#181818" points="246,409.1523,236,413.1523,246,417.1523,242,413.1523" style="stroke:#181818;stroke-width:1.0;"/><line style="stroke:#181818;stroke-width:1.0;stroke-dasharray:2.0,2.0;" x1="240" x2="412" y1="413.1523" y2="413.1523"/><text fill="#000000" font-family="sans-serif" font-size="13" lengthAdjust="spacing" textLength="80" x="252" y="407.8896">messageDto2</text><polygon fill="#181818" points="46,440.4434,36,444.4434,46,448.4434,42,444.4434" style="stroke:#181818;stroke-width:1.0;"/><line style="stroke:#181818;stroke-width:1.0;stroke-dasharray:2.0,2.0;" x1="40" x2="229" y1="444.4434" y2="444.4434"/><text fill="#000000" font-family="sans-serif" font-size="13" lengthAdjust="spacing" textLength="80" x="52" y="439.1807">messageDto2</text><path d="M309,457.4434 L309,501.4434 L526,501.4434 L526,467.4434 L516,457.4434 L309,457.4434 " fill="#FEFFDD" style="stroke:#181818;stroke-width:0.5;"/><path d="M516,457.4434 L516,467.4434 L526,467.4434 L516,457.4434 " fill="#FEFFDD" style="stroke:#181818;stroke-width:0.5;"/><text fill="#000000" font-family="sans-serif" font-size="13" lengthAdjust="spacing" textLength="77" x="315" y="476.4717">await timeout</text><text fill="#000000" font-family="sans-serif" font-size="13" lengthAdjust="spacing" textLength="196" x="315" y="493.7627">until client transmit next message</text><polygon fill="#181818" points="213,526.3164,223,530.3164,213,534.3164,217,530.3164" style="stroke:#181818;stroke-width:1.0;"/><line style="stroke:#181818;stroke-width:1.0;" x1="35" x2="219" y1="530.3164" y2="530.3164"/><text fill="#000000" font-family="sans-serif" font-size="13" lengthAdjust="spacing" textLength="171" x="42" y="525.0537">HTTP request (messageDto3)</text><polygon fill="#181818" points="401,557.6074,411,561.6074,401,565.6074,405,561.6074" style="stroke:#181818;stroke-width:1.0;"/><line style="stroke:#181818;stroke-width:1.0;" x1="235" x2="407" y1="561.6074" y2="561.6074"/><text fill="#000000" font-family="sans-serif" font-size="13" lengthAdjust="spacing" textLength="154" x="242" y="556.3447">onRequest (messageDto3)</text><polygon fill="#181818" points="608,588.8984,618,592.8984,608,596.8984,612,592.8984" style="stroke:#181818;stroke-width:1.0;"/><line style="stroke:#181818;stroke-width:1.0;stroke-dasharray:2.0,2.0;" x1="423" x2="614" y1="592.8984" y2="592.8984"/><text fill="#000000" font-family="sans-serif" font-size="13" lengthAdjust="spacing" textLength="80" x="430" y="587.6357">messageDto3</text><polygon fill="#181818" points="881,620.1895,891,624.1895,881,628.1895,885,624.1895" style="stroke:#181818;stroke-width:1.0;"/><line style="stroke:#181818;stroke-width:1.0;stroke-dasharray:2.0,2.0;" x1="625" x2="887" y1="624.1895" y2="624.1895"/><text fill="#000000" font-family="sans-serif" font-size="13" lengthAdjust="spacing" textLength="80" x="632" y="618.9268">messageDto3</text><path d="M309,637.1895 L309,681.1895 L526,681.1895 L526,647.1895 L516,637.1895 L309,637.1895 " fill="#FEFFDD" style="stroke:#181818;stroke-width:0.5;"/><path d="M516,637.1895 L516,647.1895 L526,647.1895 L516,637.1895 " fill="#FEFFDD" style="stroke:#181818;stroke-width:0.5;"/><text fill="#000000" font-family="sans-serif" font-size="13" lengthAdjust="spacing" textLength="77" x="315" y="656.2178">await timeout</text><text fill="#000000" font-family="sans-serif" font-size="13" lengthAdjust="spacing" textLength="196" x="315" y="673.5088">until server process messageDto3</text><polygon fill="#181818" points="641,706.0625,631,710.0625,641,714.0625,637,710.0625" style="stroke:#181818;stroke-width:1.0;"/><line style="stroke:#181818;stroke-width:1.0;" x1="635" x2="892" y1="710.0625" y2="710.0625"/><text fill="#000000" font-family="sans-serif" font-size="13" lengthAdjust="spacing" textLength="80" x="647" y="704.7998">messageDto4</text><polygon fill="#181818" points="434,737.3535,424,741.3535,434,745.3535,430,741.3535" style="stroke:#181818;stroke-width:1.0;"/><line style="stroke:#181818;stroke-width:1.0;" x1="428" x2="619" y1="741.3535" y2="741.3535"/><text fill="#000000" font-family="sans-serif" font-size="13" lengthAdjust="spacing" textLength="173" x="440" y="736.0908">sendMessage (messageDto4)</text><polygon fill="#181818" points="608,751.3535,618,755.3535,608,759.3535,612,755.3535" style="stroke:#181818;stroke-width:1.0;"/><line style="stroke:#181818;stroke-width:1.0;stroke-dasharray:2.0,2.0;" x1="423" x2="614" y1="755.3535" y2="755.3535"/><polygon fill="#181818" points="886,765.3535,896,769.3535,886,773.3535,890,769.3535" style="stroke:#181818;stroke-width:1.0;"/><line style="stroke:#181818;stroke-width:1.0;stroke-dasharray:2.0,2.0;" x1="625" x2="892" y1="769.3535" y2="769.3535"/><polygon fill="#181818" points="246,796.6445,236,800.6445,246,804.6445,242,800.6445" style="stroke:#181818;stroke-width:1.0;"/><line style="stroke:#181818;stroke-width:1.0;stroke-dasharray:2.0,2.0;" x1="240" x2="417" y1="800.6445" y2="800.6445"/><text fill="#000000" font-family="sans-serif" font-size="13" lengthAdjust="spacing" textLength="80" x="252" y="795.3818">messageDto4</text><polygon fill="#181818" points="46,827.9355,36,831.9355,46,835.9355,42,831.9355" style="stroke:#181818;stroke-width:1.0;"/><line style="stroke:#181818;stroke-width:1.0;stroke-dasharray:2.0,2.0;" x1="40" x2="229" y1="831.9355" y2="831.9355"/><text fill="#000000" font-family="sans-serif" font-size="13" lengthAdjust="spacing" textLength="80" x="52" y="826.6729">messageDto4</text><rect fill="#EEEEEE" height="3" style="stroke:#EEEEEE;stroke-width:1.0;" width="998" x="0" y="861.5811"/><line style="stroke:#000000;stroke-width:1.0;" x1="0" x2="998" y1="861.5811" y2="861.5811"/><line style="stroke:#000000;stroke-width:1.0;" x1="0" x2="998" y1="864.5811" y2="864.5811"/><rect fill="#EEEEEE" height="25.291" style="stroke:#000000;stroke-width:2.0;" width="143" x="427.5" y="849.9355"/><text fill="#000000" font-family="sans-serif" font-size="13" font-weight="bold" lengthAdjust="spacing" textLength="125" x="433.5" y="867.9639">Reader Server Side</text><polygon fill="#181818" points="213,904.5176,223,908.5176,213,912.5176,217,908.5176" style="stroke:#181818;stroke-width:1.0;"/><line style="stroke:#181818;stroke-width:1.0;" x1="35" x2="219" y1="908.5176" y2="908.5176"/><text fill="#000000" font-family="sans-serif" font-size="13" lengthAdjust="spacing" textLength="171" x="42" y="903.2549">HTTP request (messageDto1)</text><polygon fill="#181818" points="401,935.8086,411,939.8086,401,943.8086,405,939.8086" style="stroke:#181818;stroke-width:1.0;"/><line style="stroke:#181818;stroke-width:1.0;" x1="235" x2="407" y1="939.8086" y2="939.8086"/><text fill="#000000" font-family="sans-serif" font-size="13" lengthAdjust="spacing" textLength="154" x="242" y="934.5459">onRequest (messageDto1)</text><polygon fill="#181818" points="608,967.0996,618,971.0996,608,975.0996,612,971.0996" style="stroke:#181818;stroke-width:1.0;"/><line style="stroke:#181818;stroke-width:1.0;" x1="423" x2="614" y1="971.0996" y2="971.0996"/><text fill="#000000" font-family="sans-serif" font-size="13" lengthAdjust="spacing" textLength="159" x="430" y="965.8369">onMessage (messageDto1)</text><polygon fill="#181818" points="881,998.3906,891,1002.3906,881,1006.3906,885,1002.3906" style="stroke:#181818;stroke-width:1.0;"/><line style="stroke:#181818;stroke-width:1.0;" x1="630" x2="887" y1="1002.3906" y2="1002.3906"/><text fill="#000000" font-family="sans-serif" font-size="13" lengthAdjust="spacing" textLength="235" x="637" y="997.1279">SYNC process message (messageDto1)</text><polygon fill="#181818" points="641,1029.6816,631,1033.6816,641,1037.6816,637,1033.6816" style="stroke:#181818;stroke-width:1.0;"/><line style="stroke:#181818;stroke-width:1.0;stroke-dasharray:2.0,2.0;" x1="635" x2="897" y1="1033.6816" y2="1033.6816"/><text fill="#000000" font-family="sans-serif" font-size="13" lengthAdjust="spacing" textLength="80" x="647" y="1028.4189">messageDto2</text><polygon fill="#181818" points="434,1060.9727,424,1064.9727,434,1068.9727,430,1064.9727" style="stroke:#181818;stroke-width:1.0;"/><line style="stroke:#181818;stroke-width:1.0;" x1="428" x2="619" y1="1064.9727" y2="1064.9727"/><text fill="#000000" font-family="sans-serif" font-size="13" lengthAdjust="spacing" textLength="173" x="440" y="1059.71">sendMessage (messageDto2)</text><polygon fill="#181818" points="608,1074.9727,618,1078.9727,608,1082.9727,612,1078.9727" style="stroke:#181818;stroke-width:1.0;"/><line style="stroke:#181818;stroke-width:1.0;stroke-dasharray:2.0,2.0;" x1="423" x2="614" y1="1078.9727" y2="1078.9727"/><polygon fill="#181818" points="434,1088.9727,424,1092.9727,434,1096.9727,430,1092.9727" style="stroke:#181818;stroke-width:1.0;"/><line style="stroke:#181818;stroke-width:1.0;stroke-dasharray:2.0,2.0;" x1="428" x2="624" y1="1092.9727" y2="1092.9727"/><path d="M360,1105.9727 L360,1132.9727 L475,1132.9727 L475,1115.9727 L465,1105.9727 L360,1105.9727 " fill="#FEFFDD" style="stroke:#181818;stroke-width:0.5;"/><path d="M465,1105.9727 L465,1115.9727 L475,1115.9727 L465,1105.9727 " fill="#FEFFDD" style="stroke:#181818;stroke-width:0.5;"/><text fill="#000000" font-family="sans-serif" font-size="13" lengthAdjust="spacing" textLength="94" x="366" y="1125.001">await 0 seconds</text><polygon fill="#181818" points="246,1157.5547,236,1161.5547,246,1165.5547,242,1161.5547" style="stroke:#181818;stroke-width:1.0;"/><line style="stroke:#181818;stroke-width:1.0;stroke-dasharray:2.0,2.0;" x1="240" x2="417" y1="1161.5547" y2="1161.5547"/><text fill="#000000" font-family="sans-serif" font-size="13" lengthAdjust="spacing" textLength="80" x="252" y="1156.292">messageDto2</text><polygon fill="#181818" points="46,1188.8457,36,1192.8457,46,1196.8457,42,1192.8457" style="stroke:#181818;stroke-width:1.0;"/><line style="stroke:#181818;stroke-width:1.0;stroke-dasharray:2.0,2.0;" x1="40" x2="229" y1="1192.8457" y2="1192.8457"/><text fill="#000000" font-family="sans-serif" font-size="13" lengthAdjust="spacing" textLength="80" x="52" y="1187.583">messageDto2</text><!--SRC=[tLHDRy8m3BtdLrYSng7I1ZrDW8JO9AHfQA9STenQYqLhawurRFpxfMb30mjVGxkifxHzp_QpNqo2KcIWdsWZOvYf1272Oeq5Gva0cTyivmM9MEHS4dGcgK197U0bnEQu-_jH9haI-bI7CJXilkqYzpCQgDJlkx0dtEIfnS2KooHji6_rUIzgZLk8-1r9o2MCypmLCIUXf66LjJp6On9hJcXLiE4GviWJJQubGYHqRSCXOpK2Wj5M2Tp3TB5uWG8_LbWIt6HObdo93wJkkctehN2s9UeWbKOTGCdvSRRf1JDepMhK6k9pZJz4j8rXbXECHerkJHz7hxC9v8MADHcouw5ijqmLWo3OnaxmPpgfz9kgifZIArlnJov8-oX3jIBpPIL9fBQQlIggvCPuLQIs_47GLjyYUynNWIdJQLQfmtdwtEiwCwbqDKDnmzkvLx-TmRiGfmljh2zeGvE12YxBJ2CaVf5Du3JY8WFshpAWPZUMs_6S0t1i5OnyW-d_cJdwPviZFDiSdhiKTd-qmAFPgzBvPg_ESPk5BgM-yQTi5_fjr-wlPWV-f_tLplWNswkroe55ufdQsMRfUSnovRgyrRbY9PFIiVkfPNMnYmuihsy0]--></g></svg>