<?xml version="1.0" encoding="UTF-8" standalone="no"?><svg xmlns="http://www.w3.org/2000/svg" xmlns:xlink="http://www.w3.org/1999/xlink" contentScriptType="application/ecmascript" contentStyleType="text/css" height="1652.5px" preserveAspectRatio="none" style="width:2765px;height:1652px;background:#FFFFFF;" version="1.1" viewBox="0 0 2765 1652" width="2765px" zoomAndPan="magnify"><defs><filter height="1" id="b17dzw99mgiypu0" width="1" x="0" y="0"><feFlood flood-color="#90EE90" result="flood"/><feComposite in="SourceGraphic" in2="flood" operator="over"/></filter><filter height="1" id="b17dzw99mgiypu1" width="1" x="0" y="0"><feFlood flood-color="#FFC0CB" result="flood"/><feComposite in="SourceGraphic" in2="flood" operator="over"/></filter></defs><g><text fill="#000000" font-family="sans-serif" font-size="45" lengthAdjust="spacing" textLength="1342.5" x="695" y="46.7139">Keyple 2.0 - keyple-distributed-network-java-lib - 2.0.0 (10/06/2021)</text><rect fill="#DDDDDD" height="69.0234" rx="12.5" ry="12.5" style="stroke:#000000;stroke-width:2.5;" width="732.5" x="998.75" y="76.6016"/><text fill="#000000" font-family="sans-serif" font-size="35" lengthAdjust="spacing" textLength="140" x="1013.75" y="125.4346">Legend :</text><text fill="#000000" filter="url(#b17dzw99mgiypu0)" font-family="sans-serif" font-size="35" font-weight="bold" lengthAdjust="spacing" textLength="250" x="1163.75" y="125.4346">Sync Node API</text><text fill="#000000" font-family="sans-serif" font-size="35" lengthAdjust="spacing" textLength="12.5" x="1423.75" y="125.4346">-</text><text fill="#000000" filter="url(#b17dzw99mgiypu1)" font-family="sans-serif" font-size="35" font-weight="bold" lengthAdjust="spacing" textLength="270" x="1446.25" y="125.4346">Async Node API</text><!--MD5=[3fb92fba1735106d511c1d05a9f83ed2]
cluster root--><polygon fill="#F8F9F9" points="40,183.125,580,183.125,597.5,242.1484,2722.5,242.1484,2722.5,1635.625,40,1635.625,40,183.125" style="stroke:#000000;stroke-width:3.75;"/><line style="stroke:#000000;stroke-width:3.75;" x1="40" x2="597.5" y1="242.1484" y2="242.1484"/><text fill="#000000" font-family="sans-serif" font-size="35" font-weight="bold" lengthAdjust="spacing" textLength="525" x="50" y="224.458">org.eclipse.keyple.distributed</text><!--MD5=[f7e0e2453c87923036c1ac2adfb9cbf0]
cluster spi--><polygon fill="#F2F3F4" points="480,690.625,547.5,690.625,565,749.6484,2662.5,749.6484,2662.5,1045.625,480,1045.625,480,690.625" style="stroke:#000000;stroke-width:3.75;"/><line style="stroke:#000000;stroke-width:3.75;" x1="480" x2="565" y1="749.6484" y2="749.6484"/><text fill="#000000" font-family="sans-serif" font-size="35" font-weight="bold" lengthAdjust="spacing" textLength="52.5" x="490" y="731.958">spi</text><!--MD5=[f5644b98fc2cac15db0816ab2936d10f]
class AsyncNodeClient--><rect codeLine="53" fill="#FDEDEC" height="258.3594" id="AsyncNodeClient" style="stroke:#E74C3C;stroke-width:3.75;" width="645" x="2037.5" y="273.125"/><ellipse cx="2216.875" cy="313.125" fill="#B4A7E5" rx="27.5" ry="27.5" style="stroke:#B4A7E5;stroke-width:2.5;"/><path d="M2219.375,305.625 L2219.375,320.625 L2224.375,320.625 L2225.5859,320.625 L2226.875,322.1875 L2226.875,323.125 L2226.875,324.0625 L2225.5859,325.625 L2224.375,325.625 L2209.375,325.625 L2208.1641,325.625 L2206.875,324.0625 L2206.875,323.125 L2206.875,322.1875 L2208.1641,320.625 L2209.375,320.625 L2214.375,320.625 L2214.375,305.625 L2209.375,305.625 L2208.1641,305.625 L2206.875,304.0625 L2206.875,303.125 L2206.875,302.1875 L2208.1641,300.625 L2209.375,300.625 L2224.375,300.625 L2225.5859,300.625 L2226.875,302.1875 L2226.875,303.125 L2226.875,304.0625 L2225.5859,305.625 L2224.375,305.625 L2219.375,305.625 Z " fill="#000000"/><ellipse cx="2280.625" cy="311.875" fill="#84BE84" rx="7.5" ry="7.5" style="stroke:#038048;stroke-width:2.5;"/><text fill="#000000" font-family="sans-serif" font-size="30" font-style="italic" lengthAdjust="spacing" textLength="237.5" x="2295.625" y="325.4004">AsyncNodeClient</text><line style="stroke:#E74C3C;stroke-width:3.75;" x1="2040" x2="2680" y1="353.125" y2="353.125"/><line style="stroke:#E74C3C;stroke-width:3.75;" x1="2040" x2="2680" y1="373.125" y2="373.125"/><ellipse cx="2065" cy="400.625" fill="#84BE84" rx="7.5" ry="7.5" style="stroke:#038048;stroke-width:2.5;"/><text fill="#000000" font-family="sans-serif" font-size="27.5" lengthAdjust="spacing" textLength="372.5" x="2087.5" y="411.6724">void onOpen (String sessionId)</text><ellipse cx="2065" cy="435.2148" fill="#84BE84" rx="7.5" ry="7.5" style="stroke:#038048;stroke-width:2.5;"/><text fill="#000000" font-family="sans-serif" font-size="27.5" lengthAdjust="spacing" textLength="492.5" x="2087.5" y="446.2622">void onMessage (MessageDto message)</text><ellipse cx="2065" cy="469.8047" fill="#84BE84" rx="7.5" ry="7.5" style="stroke:#038048;stroke-width:2.5;"/><text fill="#000000" font-family="sans-serif" font-size="27.5" lengthAdjust="spacing" textLength="375" x="2087.5" y="480.8521">void onClose (String sessionId)</text><ellipse cx="2065" cy="504.3945" fill="#84BE84" rx="7.5" ry="7.5" style="stroke:#038048;stroke-width:2.5;"/><text fill="#000000" font-family="sans-serif" font-size="27.5" lengthAdjust="spacing" textLength="580" x="2087.5" y="515.4419">void onError (String sessionId, Throwable error)</text><!--MD5=[0a2f2fb2edeec6d0e98aba29aa655f31]
class AsyncNodeServer--><rect codeLine="59" fill="#FDEDEC" height="223.7695" id="AsyncNodeServer" style="stroke:#E74C3C;stroke-width:3.75;" width="645" x="1305" y="289.375"/><ellipse cx="1479.375" cy="329.375" fill="#B4A7E5" rx="27.5" ry="27.5" style="stroke:#B4A7E5;stroke-width:2.5;"/><path d="M1481.875,321.875 L1481.875,336.875 L1486.875,336.875 L1488.0859,336.875 L1489.375,338.4375 L1489.375,339.375 L1489.375,340.3125 L1488.0859,341.875 L1486.875,341.875 L1471.875,341.875 L1470.6641,341.875 L1469.375,340.3125 L1469.375,339.375 L1469.375,338.4375 L1470.6641,336.875 L1471.875,336.875 L1476.875,336.875 L1476.875,321.875 L1471.875,321.875 L1470.6641,321.875 L1469.375,320.3125 L1469.375,319.375 L1469.375,318.4375 L1470.6641,316.875 L1471.875,316.875 L1486.875,316.875 L1488.0859,316.875 L1489.375,318.4375 L1489.375,319.375 L1489.375,320.3125 L1488.0859,321.875 L1486.875,321.875 L1481.875,321.875 Z " fill="#000000"/><ellipse cx="1543.125" cy="328.125" fill="#84BE84" rx="7.5" ry="7.5" style="stroke:#038048;stroke-width:2.5;"/><text fill="#000000" font-family="sans-serif" font-size="30" font-style="italic" lengthAdjust="spacing" textLength="247.5" x="1558.125" y="341.6504">AsyncNodeServer</text><line style="stroke:#E74C3C;stroke-width:3.75;" x1="1307.5" x2="1947.5" y1="369.375" y2="369.375"/><line style="stroke:#E74C3C;stroke-width:3.75;" x1="1307.5" x2="1947.5" y1="389.375" y2="389.375"/><ellipse cx="1332.5" cy="416.875" fill="#84BE84" rx="7.5" ry="7.5" style="stroke:#038048;stroke-width:2.5;"/><text fill="#000000" font-family="sans-serif" font-size="27.5" lengthAdjust="spacing" textLength="492.5" x="1355" y="427.9224">void onMessage (MessageDto message)</text><ellipse cx="1332.5" cy="451.4648" fill="#84BE84" rx="7.5" ry="7.5" style="stroke:#038048;stroke-width:2.5;"/><text fill="#000000" font-family="sans-serif" font-size="27.5" lengthAdjust="spacing" textLength="375" x="1355" y="462.5122">void onClose (String sessionId)</text><ellipse cx="1332.5" cy="486.0547" fill="#84BE84" rx="7.5" ry="7.5" style="stroke:#038048;stroke-width:2.5;"/><text fill="#000000" font-family="sans-serif" font-size="27.5" lengthAdjust="spacing" textLength="580" x="1355" y="497.1021">void onError (String sessionId, Throwable error)</text><!--MD5=[93e80188d33ab05d87f81cd0d94a3bc4]
class SyncNodeClient--><rect codeLine="64" fill="#E9F7EF" height="120" id="SyncNodeClient" style="stroke:#27AE60;stroke-width:3.75;" width="330" x="887.5" y="341.875"/><ellipse cx="925" cy="381.875" fill="#B4A7E5" rx="27.5" ry="27.5" style="stroke:#B4A7E5;stroke-width:2.5;"/><path d="M927.5,374.375 L927.5,389.375 L932.5,389.375 L933.7109,389.375 L935,390.9375 L935,391.875 L935,392.8125 L933.7109,394.375 L932.5,394.375 L917.5,394.375 L916.2891,394.375 L915,392.8125 L915,391.875 L915,390.9375 L916.2891,389.375 L917.5,389.375 L922.5,389.375 L922.5,374.375 L917.5,374.375 L916.2891,374.375 L915,372.8125 L915,371.875 L915,370.9375 L916.2891,369.375 L917.5,369.375 L932.5,369.375 L933.7109,369.375 L935,370.9375 L935,371.875 L935,372.8125 L933.7109,374.375 L932.5,374.375 L927.5,374.375 Z " fill="#000000"/><ellipse cx="972.5" cy="380.625" fill="#84BE84" rx="7.5" ry="7.5" style="stroke:#038048;stroke-width:2.5;"/><text fill="#000000" font-family="sans-serif" font-size="30" font-style="italic" lengthAdjust="spacing" textLength="222.5" x="987.5" y="394.1504">SyncNodeClient</text><line style="stroke:#27AE60;stroke-width:3.75;" x1="890" x2="1215" y1="421.875" y2="421.875"/><line style="stroke:#27AE60;stroke-width:3.75;" x1="890" x2="1215" y1="441.875" y2="441.875"/><!--MD5=[6c35b9bf176c1aee30f526a9a385796d]
class SyncNodeServer--><rect codeLine="66" fill="#E9F7EF" height="154.5898" id="SyncNodeServer" style="stroke:#27AE60;stroke-width:3.75;" width="720" x="80" y="324.375"/><ellipse cx="299.375" cy="364.375" fill="#B4A7E5" rx="27.5" ry="27.5" style="stroke:#B4A7E5;stroke-width:2.5;"/><path d="M301.875,356.875 L301.875,371.875 L306.875,371.875 L308.0859,371.875 L309.375,373.4375 L309.375,374.375 L309.375,375.3125 L308.0859,376.875 L306.875,376.875 L291.875,376.875 L290.6641,376.875 L289.375,375.3125 L289.375,374.375 L289.375,373.4375 L290.6641,371.875 L291.875,371.875 L296.875,371.875 L296.875,356.875 L291.875,356.875 L290.6641,356.875 L289.375,355.3125 L289.375,354.375 L289.375,353.4375 L290.6641,351.875 L291.875,351.875 L306.875,351.875 L308.0859,351.875 L309.375,353.4375 L309.375,354.375 L309.375,355.3125 L308.0859,356.875 L306.875,356.875 L301.875,356.875 Z " fill="#000000"/><ellipse cx="363.125" cy="363.125" fill="#84BE84" rx="7.5" ry="7.5" style="stroke:#038048;stroke-width:2.5;"/><text fill="#000000" font-family="sans-serif" font-size="30" font-style="italic" lengthAdjust="spacing" textLength="232.5" x="378.125" y="376.6504">SyncNodeServer</text><line style="stroke:#27AE60;stroke-width:3.75;" x1="82.5" x2="797.5" y1="404.375" y2="404.375"/><line style="stroke:#27AE60;stroke-width:3.75;" x1="82.5" x2="797.5" y1="424.375" y2="424.375"/><ellipse cx="107.5" cy="451.875" fill="#84BE84" rx="7.5" ry="7.5" style="stroke:#038048;stroke-width:2.5;"/><text fill="#000000" font-family="sans-serif" font-size="27.5" lengthAdjust="spacing" textLength="655" x="130" y="462.9224">List&lt;MessageDto&gt; onRequest (MessageDto message)</text><!--MD5=[f1362ea87dac9fe50fe8caadfc737c53]
class MessageDto--><rect codeLine="84" fill="#FEFECE" height="431.3086" id="MessageDto" style="stroke:#D4AC0D;stroke-width:3.75;" width="380" x="705" y="1163.125"/><ellipse cx="788.625" cy="1203.125" fill="#ADD1B2" rx="27.5" ry="27.5" style="stroke:#ADD1B2;stroke-width:2.5;"/><path d="M793.625,1194.375 Q794.1328,1193.125 794.7188,1192.5 Q795.3047,1191.875 795.9688,1191.875 Q797.1406,1191.875 797.8828,1192.5781 Q798.625,1193.2813 798.625,1194.9219 L798.625,1198.8281 Q798.625,1200.4688 797.9219,1201.1719 Q797.2188,1201.875 796.125,1201.875 Q795.1484,1201.875 794.5234,1201.4453 Q793.8984,1201.0156 793.625,1199.8828 Q793.5078,1199.1016 793.0781,1198.6719 Q792.2969,1197.8516 790.8906,1197.3828 Q789.4844,1196.875 788.0781,1196.875 Q786.3203,1196.875 784.8359,1197.5781 Q783.3906,1198.2813 782.2578,1199.8438 Q781.125,1201.4063 781.125,1203.5547 L781.125,1205.8594 Q781.125,1208.4375 783.2344,1210.1563 Q785.3438,1211.875 789.0938,1211.875 Q791.3203,1211.875 792.8828,1211.3672 Q793.7813,1211.0938 794.7969,1210.1953 Q795.4609,1209.6875 795.8125,1209.5313 Q796.1641,1209.375 796.5938,1209.375 Q797.4141,1209.375 798,1210.0391 Q798.625,1210.6641 798.625,1211.5625 Q798.625,1212.4219 797.7656,1213.4375 Q796.5156,1214.9219 794.5234,1215.7422 Q791.9063,1216.875 788.7031,1216.875 Q784.9531,1216.875 781.9453,1215.3906 Q779.5234,1214.2188 777.8047,1211.6797 Q776.125,1209.1406 776.125,1206.1328 L776.125,1203.3984 Q776.125,1200.2734 777.6094,1197.5391 Q779.1328,1194.8047 781.75,1193.3594 Q784.4063,1191.875 787.375,1191.875 Q789.1719,1191.875 790.7344,1192.5 Q792.2969,1193.125 793.625,1194.375 Z " fill="#000000"/><ellipse cx="846.375" cy="1201.875" fill="#84BE84" rx="7.5" ry="7.5" style="stroke:#038048;stroke-width:2.5;"/><text fill="#000000" font-family="sans-serif" font-size="30" font-style="italic" lengthAdjust="spacing" textLength="170" x="861.375" y="1215.4004">MessageDto</text><line style="stroke:#D4AC0D;stroke-width:3.75;" x1="707.5" x2="1082.5" y1="1243.125" y2="1243.125"/><ellipse cx="732.5" cy="1270.625" rx="7.5" ry="7.5" style="stroke:#038048;stroke-width:2.5;fill:none;"/><text fill="#000000" font-family="sans-serif" font-size="27.5" lengthAdjust="spacing" textLength="192.5" x="755" y="1281.6724">String sessionId</text><ellipse cx="732.5" cy="1305.2148" rx="7.5" ry="7.5" style="stroke:#038048;stroke-width:2.5;fill:none;"/><text fill="#000000" font-family="sans-serif" font-size="27.5" lengthAdjust="spacing" textLength="150" x="755" y="1316.2622">String action</text><ellipse cx="732.5" cy="1339.8047" rx="7.5" ry="7.5" style="stroke:#038048;stroke-width:2.5;fill:none;"/><text fill="#000000" font-family="sans-serif" font-size="27.5" lengthAdjust="spacing" textLength="222.5" x="755" y="1350.8521">String clientNodeId</text><ellipse cx="732.5" cy="1374.3945" rx="7.5" ry="7.5" style="stroke:#038048;stroke-width:2.5;fill:none;"/><text fill="#000000" font-family="sans-serif" font-size="27.5" lengthAdjust="spacing" textLength="240" x="755" y="1385.4419">String serverNodeId</text><ellipse cx="732.5" cy="1408.9844" rx="7.5" ry="7.5" style="stroke:#038048;stroke-width:2.5;fill:none;"/><text fill="#000000" font-family="sans-serif" font-size="27.5" lengthAdjust="spacing" textLength="287.5" x="755" y="1420.0317">String localReaderName</text><ellipse cx="732.5" cy="1443.5742" rx="7.5" ry="7.5" style="stroke:#038048;stroke-width:2.5;fill:none;"/><text fill="#000000" font-family="sans-serif" font-size="27.5" lengthAdjust="spacing" textLength="315" x="755" y="1454.6216">String remoteReaderName</text><ellipse cx="732.5" cy="1478.1641" rx="7.5" ry="7.5" style="stroke:#038048;stroke-width:2.5;fill:none;"/><text fill="#000000" font-family="sans-serif" font-size="27.5" lengthAdjust="spacing" textLength="137.5" x="755" y="1489.2114">String body</text><line style="stroke:#D4AC0D;stroke-width:3.75;" x1="707.5" x2="1082.5" y1="1505.2539" y2="1505.2539"/><ellipse cx="732.5" cy="1532.7539" fill="#84BE84" rx="7.5" ry="7.5" style="stroke:#038048;stroke-width:2.5;"/><text fill="#000000" font-family="sans-serif" font-size="27.5" lengthAdjust="spacing" textLength="127.5" x="755" y="1543.8013">getters()...</text><ellipse cx="732.5" cy="1567.3438" fill="#84BE84" rx="7.5" ry="7.5" style="stroke:#038048;stroke-width:2.5;"/><text fill="#000000" font-family="sans-serif" font-size="27.5" lengthAdjust="spacing" textLength="127.5" x="755" y="1578.3911">setters()...</text><!--MD5=[0d0c35d29dfc84ebf3b01a70ae8beab8]
class NodeCommunicationException--><rect codeLine="96" fill="#FEFECE" height="209.6484" id="NodeCommunicationException" style="stroke:#D4AC0D;stroke-width:3.75;" width="867.5" x="1218.75" y="1274.375"/><ellipse cx="1413.125" cy="1324.6094" fill="#ADD1B2" rx="27.5" ry="27.5" style="stroke:#ADD1B2;stroke-width:2.5;"/><path d="M1418.125,1315.8594 Q1418.6328,1314.6094 1419.2188,1313.9844 Q1419.8047,1313.3594 1420.4688,1313.3594 Q1421.6406,1313.3594 1422.3828,1314.0625 Q1423.125,1314.7656 1423.125,1316.4063 L1423.125,1320.3125 Q1423.125,1321.9531 1422.4219,1322.6563 Q1421.7188,1323.3594 1420.625,1323.3594 Q1419.6484,1323.3594 1419.0234,1322.9297 Q1418.3984,1322.5 1418.125,1321.3672 Q1418.0078,1320.5859 1417.5781,1320.1563 Q1416.7969,1319.3359 1415.3906,1318.8672 Q1413.9844,1318.3594 1412.5781,1318.3594 Q1410.8203,1318.3594 1409.3359,1319.0625 Q1407.8906,1319.7656 1406.7578,1321.3281 Q1405.625,1322.8906 1405.625,1325.0391 L1405.625,1327.3438 Q1405.625,1329.9219 1407.7344,1331.6406 Q1409.8438,1333.3594 1413.5938,1333.3594 Q1415.8203,1333.3594 1417.3828,1332.8516 Q1418.2813,1332.5781 1419.2969,1331.6797 Q1419.9609,1331.1719 1420.3125,1331.0156 Q1420.6641,1330.8594 1421.0938,1330.8594 Q1421.9141,1330.8594 1422.5,1331.5234 Q1423.125,1332.1484 1423.125,1333.0469 Q1423.125,1333.9063 1422.2656,1334.9219 Q1421.0156,1336.4063 1419.0234,1337.2266 Q1416.4063,1338.3594 1413.2031,1338.3594 Q1409.4531,1338.3594 1406.4453,1336.875 Q1404.0234,1335.7031 1402.3047,1333.1641 Q1400.625,1330.625 1400.625,1327.6172 L1400.625,1324.8828 Q1400.625,1321.7578 1402.1094,1319.0234 Q1403.6328,1316.2891 1406.25,1314.8438 Q1408.9063,1313.3594 1411.875,1313.3594 Q1413.6719,1313.3594 1415.2344,1313.9844 Q1416.7969,1314.6094 1418.125,1315.8594 Z " fill="#000000"/><ellipse cx="1476.875" cy="1323.3594" fill="#84BE84" rx="7.5" ry="7.5" style="stroke:#038048;stroke-width:2.5;"/><text fill="#000000" font-family="sans-serif" font-size="30" font-style="italic" lengthAdjust="spacing" textLength="322.5" x="1545.625" y="1318.0176">&lt;&lt;RuntimeException&gt;&gt;</text><text fill="#000000" font-family="sans-serif" font-size="30" font-style="italic" lengthAdjust="spacing" textLength="430" x="1491.875" y="1355.752">NodeCommunicationException</text><line style="stroke:#D4AC0D;stroke-width:3.75;" x1="1221.25" x2="2083.75" y1="1374.8438" y2="1374.8438"/><line style="stroke:#D4AC0D;stroke-width:3.75;" x1="1221.25" x2="2083.75" y1="1394.8438" y2="1394.8438"/><ellipse cx="1246.25" cy="1422.3438" fill="#84BE84" rx="7.5" ry="7.5" style="stroke:#038048;stroke-width:2.5;"/><text fill="#000000" font-family="sans-serif" font-size="27.5" lengthAdjust="spacing" textLength="575" x="1268.75" y="1433.3911">NodeCommunicationException (String message)</text><ellipse cx="1246.25" cy="1456.9336" fill="#84BE84" rx="7.5" ry="7.5" style="stroke:#038048;stroke-width:2.5;"/><text fill="#000000" font-family="sans-serif" font-size="27.5" lengthAdjust="spacing" textLength="802.5" x="1268.75" y="1467.981">NodeCommunicationException (String message, Throwable cause)</text><!--MD5=[329ccc2f1fdfefaca176e329ee6267b3]
class AsyncEndpointClientSpi--><rect codeLine="71" fill="#FDEDEC" height="223.7695" id="AsyncEndpointClientSpi" style="stroke:#E74C3C;stroke-width:3.75;" width="587.5" x="2033.75" y="780.625"/><ellipse cx="2138.75" cy="820.625" fill="#B4A7E5" rx="27.5" ry="27.5" style="stroke:#B4A7E5;stroke-width:2.5;"/><path d="M2141.25,813.125 L2141.25,828.125 L2146.25,828.125 L2147.4609,828.125 L2148.75,829.6875 L2148.75,830.625 L2148.75,831.5625 L2147.4609,833.125 L2146.25,833.125 L2131.25,833.125 L2130.0391,833.125 L2128.75,831.5625 L2128.75,830.625 L2128.75,829.6875 L2130.0391,828.125 L2131.25,828.125 L2136.25,828.125 L2136.25,813.125 L2131.25,813.125 L2130.0391,813.125 L2128.75,811.5625 L2128.75,810.625 L2128.75,809.6875 L2130.0391,808.125 L2131.25,808.125 L2146.25,808.125 L2147.4609,808.125 L2148.75,809.6875 L2148.75,810.625 L2148.75,811.5625 L2147.4609,813.125 L2146.25,813.125 L2141.25,813.125 Z " fill="#000000"/><ellipse cx="2201.25" cy="819.375" fill="#84BE84" rx="7.5" ry="7.5" style="stroke:#038048;stroke-width:2.5;"/><text fill="#000000" font-family="sans-serif" font-size="30" font-style="italic" lengthAdjust="spacing" textLength="330" x="2216.25" y="832.9004">AsyncEndpointClientSpi</text><line style="stroke:#E74C3C;stroke-width:3.75;" x1="2036.25" x2="2618.75" y1="860.625" y2="860.625"/><line style="stroke:#E74C3C;stroke-width:3.75;" x1="2036.25" x2="2618.75" y1="880.625" y2="880.625"/><ellipse cx="2061.25" cy="908.125" fill="#84BE84" rx="7.5" ry="7.5" style="stroke:#038048;stroke-width:2.5;"/><text fill="#000000" font-family="sans-serif" font-size="27.5" lengthAdjust="spacing" textLength="435" x="2083.75" y="919.1724">void openSession (String sessionId)</text><ellipse cx="2061.25" cy="942.7148" fill="#84BE84" rx="7.5" ry="7.5" style="stroke:#038048;stroke-width:2.5;"/><text fill="#000000" font-family="sans-serif" font-size="27.5" lengthAdjust="spacing" textLength="522.5" x="2083.75" y="953.7622">void sendMessage (MessageDto message)</text><ellipse cx="2061.25" cy="977.3047" fill="#84BE84" rx="7.5" ry="7.5" style="stroke:#038048;stroke-width:2.5;"/><text fill="#000000" font-family="sans-serif" font-size="27.5" lengthAdjust="spacing" textLength="440" x="2083.75" y="988.3521">void closeSession (String sessionId)</text><!--MD5=[4ecd91beb1b1fb8385b120d0543d61f5]
class AsyncEndpointServerSpi--><rect codeLine="76" fill="#FDEDEC" height="154.5898" id="AsyncEndpointServerSpi" style="stroke:#E74C3C;stroke-width:3.75;" width="587.5" x="1358.75" y="815.625"/><ellipse cx="1459.25" cy="855.625" fill="#B4A7E5" rx="27.5" ry="27.5" style="stroke:#B4A7E5;stroke-width:2.5;"/><path d="M1461.75,848.125 L1461.75,863.125 L1466.75,863.125 L1467.9609,863.125 L1469.25,864.6875 L1469.25,865.625 L1469.25,866.5625 L1467.9609,868.125 L1466.75,868.125 L1451.75,868.125 L1450.5391,868.125 L1449.25,866.5625 L1449.25,865.625 L1449.25,864.6875 L1450.5391,863.125 L1451.75,863.125 L1456.75,863.125 L1456.75,848.125 L1451.75,848.125 L1450.5391,848.125 L1449.25,846.5625 L1449.25,845.625 L1449.25,844.6875 L1450.5391,843.125 L1451.75,843.125 L1466.75,843.125 L1467.9609,843.125 L1469.25,844.6875 L1469.25,845.625 L1469.25,846.5625 L1467.9609,848.125 L1466.75,848.125 L1461.75,848.125 Z " fill="#000000"/><ellipse cx="1520.75" cy="854.375" fill="#84BE84" rx="7.5" ry="7.5" style="stroke:#038048;stroke-width:2.5;"/><text fill="#000000" font-family="sans-serif" font-size="30" font-style="italic" lengthAdjust="spacing" textLength="340" x="1535.75" y="867.9004">AsyncEndpointServerSpi</text><line style="stroke:#E74C3C;stroke-width:3.75;" x1="1361.25" x2="1943.75" y1="895.625" y2="895.625"/><line style="stroke:#E74C3C;stroke-width:3.75;" x1="1361.25" x2="1943.75" y1="915.625" y2="915.625"/><ellipse cx="1386.25" cy="943.125" fill="#84BE84" rx="7.5" ry="7.5" style="stroke:#038048;stroke-width:2.5;"/><text fill="#000000" font-family="sans-serif" font-size="27.5" lengthAdjust="spacing" textLength="522.5" x="1408.75" y="954.1724">void sendMessage (MessageDto message)</text><!--MD5=[c36e65bfe3f8fe8d38ea1e2298781c58]
class SyncEndpointClientSpi--><rect codeLine="79" fill="#E9F7EF" height="154.5898" id="SyncEndpointClientSpi" style="stroke:#27AE60;stroke-width:3.75;" width="750" x="520" y="815.625"/><ellipse cx="713.125" cy="855.625" fill="#B4A7E5" rx="27.5" ry="27.5" style="stroke:#B4A7E5;stroke-width:2.5;"/><path d="M715.625,848.125 L715.625,863.125 L720.625,863.125 L721.8359,863.125 L723.125,864.6875 L723.125,865.625 L723.125,866.5625 L721.8359,868.125 L720.625,868.125 L705.625,868.125 L704.4141,868.125 L703.125,866.5625 L703.125,865.625 L703.125,864.6875 L704.4141,863.125 L705.625,863.125 L710.625,863.125 L710.625,848.125 L705.625,848.125 L704.4141,848.125 L703.125,846.5625 L703.125,845.625 L703.125,844.6875 L704.4141,843.125 L705.625,843.125 L720.625,843.125 L721.8359,843.125 L723.125,844.6875 L723.125,845.625 L723.125,846.5625 L721.8359,848.125 L720.625,848.125 L715.625,848.125 Z " fill="#000000"/><ellipse cx="776.875" cy="854.375" fill="#84BE84" rx="7.5" ry="7.5" style="stroke:#038048;stroke-width:2.5;"/><text fill="#000000" font-family="sans-serif" font-size="30" font-style="italic" lengthAdjust="spacing" textLength="315" x="791.875" y="867.9004">SyncEndpointClientSpi</text><line style="stroke:#27AE60;stroke-width:3.75;" x1="522.5" x2="1267.5" y1="895.625" y2="895.625"/><line style="stroke:#27AE60;stroke-width:3.75;" x1="522.5" x2="1267.5" y1="915.625" y2="915.625"/><ellipse cx="547.5" cy="943.125" fill="#84BE84" rx="7.5" ry="7.5" style="stroke:#038048;stroke-width:2.5;"/><text fill="#000000" font-family="sans-serif" font-size="27.5" lengthAdjust="spacing" textLength="685" x="570" y="954.1724">List&lt;MessageDto&gt; sendRequest (MessageDto message)</text><!--MD5=[701b1a3708528458ab7e0816ee62a401]
link SyncNodeClient to SyncEndpointClientSpi--><path codeLine="103" d="M1033.815,462.0625 C1006.52,546.33 955.525,703.765 923.5225,802.565 " fill="none" id="SyncNodeClient-to-SyncEndpointClientSpi" style="stroke:#27AE60;stroke-width:2.5;"/><polygon fill="#27AE60" points="919.3325,815.5075,935.7777,797.1825,923.1834,803.6155,916.7505,791.0211,919.3325,815.5075" style="stroke:#27AE60;stroke-width:2.5;"/><polygon fill="#000000" points="991.1481,640.4562,1005.106,621.2079,991.1264,616.6798,991.1481,640.4562" style="stroke:#000000;stroke-width:2.5;"/><text fill="#000000" font-family="sans-serif" font-size="32.5" lengthAdjust="spacing" textLength="52.5" x="1017.5" y="641.8628">use</text><!--MD5=[c6e9bf3b531c9f4881a0ca5ea0574c56]
link AsyncNodeClient to AsyncEndpointClientSpi--><path codeLine="104" d="M2351.545,530.8625 C2346.6775,603.71 2340.585,694.87 2335.75,767.1975 " fill="none" id="AsyncNodeClient-to-AsyncEndpointClientSpi" style="stroke:#27AE60;stroke-width:2.5;"/><polygon fill="#27AE60" points="2334.8625,780.475,2346.3441,758.6937,2335.698,768.003,2326.3888,757.3569,2334.8625,780.475" style="stroke:#27AE60;stroke-width:2.5;"/><polygon fill="#000000" points="2356.6664,641.0366,2365.5053,618.9642,2350.8434,617.9843,2356.6664,641.0366" style="stroke:#000000;stroke-width:2.5;"/><text fill="#000000" font-family="sans-serif" font-size="32.5" lengthAdjust="spacing" textLength="52.5" x="2380" y="641.8628">use</text><!--MD5=[0d16d4679a9ac88f03a68b047e5f96fe]
link AsyncNodeServer to AsyncEndpointServerSpi--><path codeLine="105" d="M1633.1725,514.7125 C1637.6575,601.9525 1643.835,722.095 1647.9875,802.8675 " fill="none" id="AsyncNodeServer-to-AsyncEndpointServerSpi" style="stroke:#27AE60;stroke-width:2.5;"/><polygon fill="#27AE60" points="1648.6375,815.4825,1657.467,792.4979,1647.9946,802.999,1637.4935,793.5266,1648.6375,815.4825" style="stroke:#27AE60;stroke-width:2.5;"/><polygon fill="#000000" points="1653.1418,641.048,1659.3184,618.0878,1644.6431,618.8423,1653.1418,641.048" style="stroke:#000000;stroke-width:2.5;"/><text fill="#000000" font-family="sans-serif" font-size="32.5" lengthAdjust="spacing" textLength="52.5" x="1675" y="641.8628">use</text><!--MD5=[178dea3c90517d6fbc6a859e0c6c290d]
link SyncEndpointClientSpi to MessageDto--><!--MD5=[98e16a86307e57faef5c9f97902ab470]
link AsyncEndpointServerSpi to NodeCommunicationException--><!--MD5=[d1192f6bed533a45a797510dd1e89dee]
@startuml
title
    Keyple 2.0 - keyple-distributed-network-java-lib - 2.0.0 (10/06/2021)
end title

' == THEME ==

'Couleurs issues de : https://htmlcolorcodes.com/fr/tableau-de-couleur/tableau-de-couleur-design-plat/
!define C_GREY1 F8F9F9
!define C_GREY2 F2F3F4
!define C_GREY3 E5E7E9
!define C_GREY4 D7DBDD
!define C_GREY5 CACFD2
!define C_GREY6 BDC3C7
!define C_LINK 3498DB
!define C_USE 27AE60

skinparam Shadowing false
skinparam ClassFontStyle italic
skinparam ClassBorderColor #D4AC0D
skinparam stereotypeABorderColor #A9DCDF
skinparam stereotypeIBorderColor #B4A7E5
skinparam stereotypeCBorderColor #ADD1B2
skinparam stereotypeEBorderColor #EB93DF
' Red
skinparam ClassBackgroundColor<<red>> #FDEDEC
skinparam ClassBorderColor<<red>> #E74C3C
hide <<red>> stereotype
' Purple
skinparam ClassBackgroundColor<<purple>> #F4ECF7
skinparam ClassBorderColor<<purple>> #8E44AD
hide <<purple>> stereotype
' blue
skinparam ClassBackgroundColor<<blue>> #EBF5FB
skinparam ClassBorderColor<<blue>> #3498DB
hide <<blue>> stereotype
' Green
skinparam ClassBackgroundColor<<green>> #E9F7EF
skinparam ClassBorderColor<<green>> #27AE60
hide <<green>> stereotype
' Grey
skinparam ClassBackgroundColor<<grey>> #EAECEE
skinparam ClassBorderColor<<grey>> #2C3E50
hide <<grey>> stereotype

' == CONTENT ==

legend top
    Legend : <back:lightGreen>**Sync Node API**</back> - <back:pink>**Async Node API**</back>
end legend

package "org.eclipse.keyple.distributed" as root {
    ' Nodes & Senders
    +interface AsyncNodeClient {
        +void onOpen (String sessionId)
        +void onMessage (MessageDto message)
        +void onClose (String sessionId)
        +void onError (String sessionId, Throwable error)
    }
    +interface AsyncNodeServer {
        +void onMessage (MessageDto message)
        +void onClose (String sessionId)
        +void onError (String sessionId, Throwable error)
    }
    +interface SyncNodeClient {
    }
    +interface SyncNodeServer {
        +List<MessageDto> onRequest (MessageDto message)
    }
    ' SPI
    package spi {
        +interface AsyncEndpointClientSpi {
            +void openSession (String sessionId)
            +void sendMessage (MessageDto message)
            +void closeSession (String sessionId)
        }
        +interface AsyncEndpointServerSpi {
            +void sendMessage (MessageDto message)
        }
        +interface SyncEndpointClientSpi {
            +List<MessageDto> sendRequest (MessageDto message)
        }
    }
    ' DTO
    +class MessageDto {
        + String sessionId
        + String action
        + String clientNodeId
        + String serverNodeId
        + String localReaderName
        + String remoteReaderName
        + String body
        + getters()...
        + setters()...
    }
    ' Exceptions
    +class "<<RuntimeException>>\nNodeCommunicationException" as NodeCommunicationException {
        +NodeCommunicationException (String message)
        +NodeCommunicationException (String message, Throwable cause)
    }
}

' Associations
SyncNodeClient - -> SyncEndpointClientSpi #C_USE : use >
AsyncNodeClient - -> AsyncEndpointClientSpi #C_USE : use >
AsyncNodeServer - -> AsyncEndpointServerSpi #C_USE : use >

' == LAYOUT ==

SyncEndpointClientSpi -[hidden]- MessageDto
AsyncEndpointServerSpi -[hidden]- NodeCommunicationException

' == STYLE ==

package root #C_GREY1 {}
package spi #C_GREY2 {}

AsyncNodeClient <<red>>
AsyncNodeServer <<red>>
AsyncEndpointClientSpi <<red>>
AsyncEndpointServerSpi <<red>>

SyncNodeServer <<green>>
SyncNodeClient <<green>>
SyncEndpointClientSpi <<green>>

@enduml

@startuml
title
    Keyple 2.0 - keyple-distributed-network-java-lib - 2.0.0 (10/06/2021)
end title



skinparam Shadowing false
skinparam ClassFontStyle italic
skinparam ClassBorderColor #D4AC0D
skinparam stereotypeABorderColor #A9DCDF
skinparam stereotypeIBorderColor #B4A7E5
skinparam stereotypeCBorderColor #ADD1B2
skinparam stereotypeEBorderColor #EB93DF
skinparam ClassBackgroundColor<<red>> #FDEDEC
skinparam ClassBorderColor<<red>> #E74C3C
hide <<red>> stereotype
skinparam ClassBackgroundColor<<purple>> #F4ECF7
skinparam ClassBorderColor<<purple>> #8E44AD
hide <<purple>> stereotype
skinparam ClassBackgroundColor<<blue>> #EBF5FB
skinparam ClassBorderColor<<blue>> #3498DB
hide <<blue>> stereotype
skinparam ClassBackgroundColor<<green>> #E9F7EF
skinparam ClassBorderColor<<green>> #27AE60
hide <<green>> stereotype
skinparam ClassBackgroundColor<<grey>> #EAECEE
skinparam ClassBorderColor<<grey>> #2C3E50
hide <<grey>> stereotype


legend top
    Legend : <back:lightGreen>**Sync Node API**</back> - <back:pink>**Async Node API**</back>
end legend

package "org.eclipse.keyple.distributed" as root {
    +interface AsyncNodeClient {
        +void onOpen (String sessionId)
        +void onMessage (MessageDto message)
        +void onClose (String sessionId)
        +void onError (String sessionId, Throwable error)
    }
    +interface AsyncNodeServer {
        +void onMessage (MessageDto message)
        +void onClose (String sessionId)
        +void onError (String sessionId, Throwable error)
    }
    +interface SyncNodeClient {
    }
    +interface SyncNodeServer {
        +List<MessageDto> onRequest (MessageDto message)
    }
    package spi {
        +interface AsyncEndpointClientSpi {
            +void openSession (String sessionId)
            +void sendMessage (MessageDto message)
            +void closeSession (String sessionId)
        }
        +interface AsyncEndpointServerSpi {
            +void sendMessage (MessageDto message)
        }
        +interface SyncEndpointClientSpi {
            +List<MessageDto> sendRequest (MessageDto message)
        }
    }
    +class MessageDto {
        + String sessionId
        + String action
        + String clientNodeId
        + String serverNodeId
        + String localReaderName
        + String remoteReaderName
        + String body
        + getters()...
        + setters()...
    }
    +class "<<RuntimeException>>\nNodeCommunicationException" as NodeCommunicationException {
        +NodeCommunicationException (String message)
        +NodeCommunicationException (String message, Throwable cause)
    }
}

SyncNodeClient - -> SyncEndpointClientSpi #27AE60 : use >
AsyncNodeClient - -> AsyncEndpointClientSpi #27AE60 : use >
AsyncNodeServer - -> AsyncEndpointServerSpi #27AE60 : use >


SyncEndpointClientSpi -[hidden]- MessageDto
AsyncEndpointServerSpi -[hidden]- NodeCommunicationException


package root #F8F9F9 {}
package spi #F2F3F4 {}

AsyncNodeClient <<red>>
AsyncNodeServer <<red>>
AsyncEndpointClientSpi <<red>>
AsyncEndpointServerSpi <<red>>

SyncNodeServer <<green>>
SyncNodeClient <<green>>
SyncEndpointClientSpi <<green>>

@enduml

PlantUML version 1.2021.7(Sun May 23 14:40:07 CEST 2021)
(GPL source distribution)
Java Runtime: OpenJDK Runtime Environment
JVM: Dynamic Code Evolution 64-Bit Server VM
Default Encoding: Cp1252
Language: fr
Country: FR
--></g></svg>